<?xml version="1.0" encoding="UTF-8"?>
<!--Generator: Apple Native CoreSVG 175-->
<!DOCTYPE svg
PUBLIC "-//W3C//DTD SVG 1.1//EN"
       "http://www.w3.org/Graphics/SVG/1.1/DTD/svg11.dtd">
<svg version="1.1" xmlns="http://www.w3.org/2000/svg" xmlns:xlink="http://www.w3.org/1999/xlink" width="3300" height="2200">
 <!--glyph: "uni100665.medium", point size: 100.0, font version: "17.0d11e1", template writer version: "65.1"-->
 <g id="Notes">
  <rect height="2200" id="artboard" style="fill:white;opacity:1" width="3300" x="0" y="0"/>
  <line style="fill:none;stroke:black;opacity:1;stroke-width:0.5;" x1="263" x2="3036" y1="292" y2="292"/>
  <text style="stroke:none;fill:black;font-family:sans-serif;font-size:13;font-weight:bold;" transform="matrix(1 0 0 1 263 322)">Weight/Scale Variations</text>
  <text style="stroke:none;fill:black;font-family:sans-serif;font-size:13;text-anchor:middle;" transform="matrix(1 0 0 1 559.711 322)">Ultralight</text>
  <text style="stroke:none;fill:black;font-family:sans-serif;font-size:13;text-anchor:middle;" transform="matrix(1 0 0 1 856.422 322)">Thin</text>
  <text style="stroke:none;fill:black;font-family:sans-serif;font-size:13;text-anchor:middle;" transform="matrix(1 0 0 1 1153.13 322)">Light</text>
  <text style="stroke:none;fill:black;font-family:sans-serif;font-size:13;text-anchor:middle;" transform="matrix(1 0 0 1 1449.84 322)">Regular</text>
  <text style="stroke:none;fill:black;font-family:sans-serif;font-size:13;text-anchor:middle;" transform="matrix(1 0 0 1 1746.56 322)">Medium</text>
  <text style="stroke:none;fill:black;font-family:sans-serif;font-size:13;text-anchor:middle;" transform="matrix(1 0 0 1 2043.27 322)">Semibold</text>
  <text style="stroke:none;fill:black;font-family:sans-serif;font-size:13;text-anchor:middle;" transform="matrix(1 0 0 1 2339.98 322)">Bold</text>
  <text style="stroke:none;fill:black;font-family:sans-serif;font-size:13;text-anchor:middle;" transform="matrix(1 0 0 1 2636.69 322)">Heavy</text>
  <text style="stroke:none;fill:black;font-family:sans-serif;font-size:13;text-anchor:middle;" transform="matrix(1 0 0 1 2933.4 322)">Black</text>
  <line style="fill:none;stroke:black;opacity:1;stroke-width:0.5;" x1="263" x2="3036" y1="1903" y2="1903"/>
  <g transform="matrix(1 0 0 1 263 1933)">
   <path d="M9.24805 0.830078Q10.8691 0.830078 12.2949 0.214844Q13.7207-0.400391 14.8096-1.49414Q15.8984-2.58789 16.5186-4.01367Q17.1387-5.43945 17.1387-7.05078Q17.1387-8.66211 16.5186-10.0879Q15.8984-11.5137 14.8047-12.6074Q13.7109-13.7012 12.2852-14.3164Q10.8594-14.9316 9.23828-14.9316Q7.62695-14.9316 6.20117-14.3164Q4.77539-13.7012 3.69141-12.6074Q2.60742-11.5137 1.9873-10.0879Q1.36719-8.66211 1.36719-7.05078Q1.36719-5.43945 1.9873-4.01367Q2.60742-2.58789 3.69629-1.49414Q4.78516-0.400391 6.21094 0.214844Q7.63672 0.830078 9.24805 0.830078ZM9.24805-0.654297Q7.91992-0.654297 6.7627-1.14746Q5.60547-1.64062 4.73145-2.51953Q3.85742-3.39844 3.36426-4.56055Q2.87109-5.72266 2.87109-7.05078Q2.87109-8.37891 3.35938-9.54102Q3.84766-10.7031 4.72168-11.582Q5.5957-12.4609 6.75293-12.9541Q7.91016-13.4473 9.23828-13.4473Q10.5762-13.4473 11.7334-12.9541Q12.8906-12.4609 13.7695-11.582Q14.6484-10.7031 15.1465-9.54102Q15.6445-8.37891 15.6445-7.05078Q15.6445-5.72266 15.1514-4.56055Q14.6582-3.39844 13.7842-2.51953Q12.9102-1.64062 11.748-1.14746Q10.5859-0.654297 9.24805-0.654297ZM5.6543-7.05078Q5.6543-6.72852 5.85938-6.52832Q6.06445-6.32812 6.40625-6.32812L8.51562-6.32812L8.51562-4.20898Q8.51562-3.88672 8.71094-3.67676Q8.90625-3.4668 9.23828-3.4668Q9.56055-3.4668 9.77051-3.67676Q9.98047-3.88672 9.98047-4.20898L9.98047-6.32812L12.0898-6.32812Q12.4219-6.32812 12.627-6.52832Q12.832-6.72852 12.832-7.05078Q12.832-7.38281 12.627-7.58789Q12.4219-7.79297 12.0898-7.79297L9.98047-7.79297L9.98047-9.90234Q9.98047-10.2344 9.77051-10.4443Q9.56055-10.6543 9.23828-10.6543Q8.90625-10.6543 8.71094-10.4443Q8.51562-10.2344 8.51562-9.90234L8.51562-7.79297L6.40625-7.79297Q6.06445-7.79297 5.85938-7.58789Q5.6543-7.38281 5.6543-7.05078Z"/>
  </g>
  <g transform="matrix(1 0 0 1 281.867 1933)">
   <path d="M11.709 2.91016Q13.75 2.91016 15.5518 2.12891Q17.3535 1.34766 18.7305-0.0292969Q20.1074-1.40625 20.8887-3.20801Q21.6699-5.00977 21.6699-7.05078Q21.6699-9.0918 20.8887-10.8936Q20.1074-12.6953 18.7305-14.0723Q17.3535-15.4492 15.5469-16.2305Q13.7402-17.0117 11.6992-17.0117Q9.6582-17.0117 7.85645-16.2305Q6.05469-15.4492 4.68262-14.0723Q3.31055-12.6953 2.5293-10.8936Q1.74805-9.0918 1.74805-7.05078Q1.74805-5.00977 2.5293-3.20801Q3.31055-1.40625 4.6875-0.0292969Q6.06445 1.34766 7.86621 2.12891Q9.66797 2.91016 11.709 2.91016ZM11.709 1.25Q9.98047 1.25 8.47656 0.605469Q6.97266-0.0390625 5.83496-1.17676Q4.69727-2.31445 4.05762-3.81836Q3.41797-5.32227 3.41797-7.05078Q3.41797-8.7793 4.05762-10.2832Q4.69727-11.7871 5.83008-12.9297Q6.96289-14.0723 8.4668-14.7119Q9.9707-15.3516 11.6992-15.3516Q13.4277-15.3516 14.9316-14.7119Q16.4355-14.0723 17.5781-12.9297Q18.7207-11.7871 19.3652-10.2832Q20.0098-8.7793 20.0098-7.05078Q20.0098-5.32227 19.3701-3.81836Q18.7305-2.31445 17.5928-1.17676Q16.4551-0.0390625 14.9463 0.605469Q13.4375 1.25 11.709 1.25ZM7.17773-7.05078Q7.17773-6.69922 7.41211-6.47461Q7.64648-6.25 8.01758-6.25L10.8887-6.25L10.8887-3.36914Q10.8887-2.99805 11.1133-2.76855Q11.3379-2.53906 11.6895-2.53906Q12.0605-2.53906 12.29-2.76855Q12.5195-2.99805 12.5195-3.36914L12.5195-6.25L15.4004-6.25Q15.7715-6.25 16.001-6.47461Q16.2305-6.69922 16.2305-7.05078Q16.2305-7.42188 16.001-7.65137Q15.7715-7.88086 15.4004-7.88086L12.5195-7.88086L12.5195-10.752Q12.5195-11.1328 12.29-11.3623Q12.0605-11.5918 11.6895-11.5918Q11.3379-11.5918 11.1133-11.3574Q10.8887-11.123 10.8887-10.752L10.8887-7.88086L8.01758-7.88086Q7.63672-7.88086 7.40723-7.65137Q7.17773-7.42188 7.17773-7.05078Z"/>
  </g>
  <g transform="matrix(1 0 0 1 305.646 1933)">
   <path d="M14.9707 5.66406Q17.0605 5.66406 18.96 5.01465Q20.8594 4.36523 22.4512 3.19336Q24.043 2.02148 25.2197 0.429688Q26.3965-1.16211 27.0459-3.06641Q27.6953-4.9707 27.6953-7.05078Q27.6953-9.14062 27.0459-11.04Q26.3965-12.9395 25.2197-14.5312Q24.043-16.123 22.4512-17.2998Q20.8594-18.4766 18.9551-19.126Q17.0508-19.7754 14.9609-19.7754Q12.8711-19.7754 10.9717-19.126Q9.07227-18.4766 7.48535-17.2998Q5.89844-16.123 4.72168-14.5312Q3.54492-12.9395 2.90039-11.04Q2.25586-9.14062 2.25586-7.05078Q2.25586-4.9707 2.90527-3.06641Q3.55469-1.16211 4.72656 0.429688Q5.89844 2.02148 7.49023 3.19336Q9.08203 4.36523 10.9814 5.01465Q12.8809 5.66406 14.9707 5.66406ZM14.9707 3.84766Q13.1641 3.84766 11.5283 3.2959Q9.89258 2.74414 8.53516 1.74805Q7.17773 0.751953 6.17676-0.610352Q5.17578-1.97266 4.62891-3.6084Q4.08203-5.24414 4.08203-7.05078Q4.08203-8.86719 4.62891-10.5029Q5.17578-12.1387 6.17188-13.501Q7.16797-14.8633 8.52539-15.8594Q9.88281-16.8555 11.5186-17.4023Q13.1543-17.9492 14.9609-17.9492Q16.7773-17.9492 18.4131-17.4023Q20.0488-16.8555 21.4111-15.8594Q22.7734-14.8633 23.7695-13.501Q24.7656-12.1387 25.3174-10.5029Q25.8691-8.86719 25.8691-7.05078Q25.8789-5.24414 25.332-3.6084Q24.7852-1.97266 23.7842-0.610352Q22.7832 0.751953 21.4209 1.74805Q20.0586 2.74414 18.4229 3.2959Q16.7871 3.84766 14.9707 3.84766ZM9.19922-7.05078Q9.19922-6.66992 9.45801-6.4209Q9.7168-6.17188 10.1172-6.17188L14.0625-6.17188L14.0625-2.2168Q14.0625-1.81641 14.3115-1.55762Q14.5605-1.29883 14.9512-1.29883Q15.3516-1.29883 15.6104-1.55273Q15.8691-1.80664 15.8691-2.2168L15.8691-6.17188L19.8242-6.17188Q20.2246-6.17188 20.4785-6.4209Q20.7324-6.66992 20.7324-7.05078Q20.7324-7.46094 20.4785-7.71484Q20.2246-7.96875 19.8242-7.96875L15.8691-7.96875L15.8691-11.9141Q15.8691-12.3242 15.6104-12.583Q15.3516-12.8418 14.9512-12.8418Q14.5605-12.8418 14.3115-12.583Q14.0625-12.3242 14.0625-11.9141L14.0625-7.96875L10.1172-7.96875Q9.70703-7.96875 9.45312-7.71484Q9.19922-7.46094 9.19922-7.05078Z"/>
  </g>
  <text style="stroke:none;fill:black;font-family:sans-serif;font-size:13;font-weight:bold;" transform="matrix(1 0 0 1 263 1953)">Design Variations</text>
  <text style="stroke:none;fill:black;font-family:sans-serif;font-size:13;" transform="matrix(1 0 0 1 263 1971)">Symbols are supported in up to nine weights and three scales.</text>
  <text style="stroke:none;fill:black;font-family:sans-serif;font-size:13;" transform="matrix(1 0 0 1 263 1989)">For optimal layout with text and other symbols, vertically align</text>
  <text style="stroke:none;fill:black;font-family:sans-serif;font-size:13;" transform="matrix(1 0 0 1 263 2007)">symbols with the adjacent text.</text>
  <line style="fill:none;stroke:#00AEEF;stroke-width:0.5;opacity:1.0;" x1="776" x2="776" y1="1919" y2="1933"/>
  <g transform="matrix(1 0 0 1 776 1933)">
   <path d="M3.31055 0.15625Q3.70117 0.15625 3.91602-0.00976562Q4.13086-0.175781 4.26758-0.585938L5.52734-4.0332L11.2891-4.0332L12.5488-0.585938Q12.6855-0.175781 12.9004-0.00976562Q13.1152 0.15625 13.4961 0.15625Q13.8867 0.15625 14.1162-0.0585938Q14.3457-0.273438 14.3457-0.644531Q14.3457-0.869141 14.2383-1.17188L9.6582-13.3691Q9.48242-13.8184 9.17969-14.043Q8.87695-14.2676 8.4082-14.2676Q7.5-14.2676 7.17773-13.3789L2.59766-1.16211Q2.49023-0.859375 2.49023-0.634766Q2.49023-0.263672 2.70996-0.0537109Q2.92969 0.15625 3.31055 0.15625ZM6.00586-5.51758L8.37891-12.0898L8.42773-12.0898L10.8008-5.51758Z"/>
  </g>
  <line style="fill:none;stroke:#00AEEF;stroke-width:0.5;opacity:1.0;" x1="793.197" x2="793.197" y1="1919" y2="1933"/>
  <text style="stroke:none;fill:black;font-family:sans-serif;font-size:13;font-weight:bold;" transform="matrix(1 0 0 1 776 1953)">Margins</text>
  <text style="stroke:none;fill:black;font-family:sans-serif;font-size:13;" transform="matrix(1 0 0 1 776 1971)">Leading and trailing margins on the left and right side of each symbol</text>
  <text style="stroke:none;fill:black;font-family:sans-serif;font-size:13;" transform="matrix(1 0 0 1 776 1989)">can be adjusted by modifying the x-location of the margin guidelines.</text>
  <text style="stroke:none;fill:black;font-family:sans-serif;font-size:13;" transform="matrix(1 0 0 1 776 2007)">Modifications are automatically applied proportionally to all</text>
  <text style="stroke:none;fill:black;font-family:sans-serif;font-size:13;" transform="matrix(1 0 0 1 776 2025)">scales and weights.</text>
  <g transform="matrix(1 0 0 1 1289 1933)">
   <path d="M2.8418 1.86523L4.54102 3.57422Q5.18555 4.22852 5.90332 4.17969Q6.62109 4.13086 7.31445 3.35938L18.0078-8.42773L17.041-9.4043L6.42578 2.27539Q6.16211 2.57812 5.89355 2.61719Q5.625 2.65625 5.27344 2.30469L4.10156 1.14258Q3.75 0.791016 3.79395 0.522461Q3.83789 0.253906 4.14062-0.0195312L15.6152-10.8203L14.6387-11.7871L3.04688-0.898438Q2.30469-0.214844 2.25098 0.498047Q2.19727 1.21094 2.8418 1.86523ZM9.25781-16.3281Q8.94531-16.0254 8.90625-15.6348Q8.86719-15.2441 9.04297-14.9512Q9.21875-14.6777 9.55566-14.541Q9.89258-14.4043 10.3809-14.5215Q11.4746-14.7754 12.5977-14.7314Q13.7207-14.6875 14.7949-13.9844L14.209-12.5293Q13.9551-11.9043 14.0674-11.4404Q14.1797-10.9766 14.5801-10.5664L16.875-8.25195Q17.2363-7.88086 17.5781-7.82227Q17.9199-7.76367 18.3398-7.8418L19.4043-8.03711L20.0684-7.36328L20.0293-6.80664Q20-6.43555 20.1221-6.12305Q20.2441-5.81055 20.6055-5.44922L21.3672-4.70703Q21.7285-4.3457 22.1533-4.33105Q22.5781-4.31641 22.9297-4.66797L25.8398-7.58789Q26.1914-7.93945 26.1816-8.35449Q26.1719-8.76953 25.8105-9.13086L25.0391-9.89258Q24.6875-10.2539 24.3799-10.3857Q24.0723-10.5176 23.7109-10.4883L23.1348-10.4395L22.4902-11.0742L22.7344-12.1973Q22.832-12.6172 22.6953-12.9834Q22.5586-13.3496 22.1191-13.7891L19.9219-15.9766Q18.6719-17.2168 17.2607-17.8369Q15.8496-18.457 14.4189-18.4814Q12.9883-18.5059 11.665-17.959Q10.3418-17.4121 9.25781-16.3281ZM10.752-15.957Q11.6602-16.6211 12.7002-16.9043Q13.7402-17.1875 14.8047-17.085Q15.8691-16.9824 16.8701-16.5137Q17.8711-16.0449 18.7012-15.2051L21.1328-12.793Q21.3086-12.6172 21.3525-12.4512Q21.3965-12.2852 21.3379-12.0312L21.0156-10.5469L22.5195-9.0625L23.5059-9.12109Q23.6914-9.13086 23.7891-9.09668Q23.8867-9.0625 24.0332-8.91602L24.6094-8.33984L22.168-5.89844L21.5918-6.47461Q21.4453-6.62109 21.4062-6.71875Q21.3672-6.81641 21.377-7.01172L21.4453-7.98828L19.9512-9.47266L18.4277-9.21875Q18.1836-9.16992 18.042-9.2041Q17.9004-9.23828 17.7148-9.41406L15.7129-11.416Q15.5176-11.5918 15.4932-11.7529Q15.4688-11.9141 15.5859-12.1875L16.4648-14.2773Q15.293-15.3711 13.8281-15.791Q12.3633-16.2109 10.8398-15.7617Q10.7227-15.7324 10.6885-15.8057Q10.6543-15.8789 10.752-15.957Z"/>
  </g>
  <text style="stroke:none;fill:black;font-family:sans-serif;font-size:13;font-weight:bold;" transform="matrix(1 0 0 1 1289 1953)">Exporting</text>
  <text style="stroke:none;fill:black;font-family:sans-serif;font-size:13;" transform="matrix(1 0 0 1 1289 1971)">Symbols should be outlined when exporting to ensure the</text>
  <text style="stroke:none;fill:black;font-family:sans-serif;font-size:13;" transform="matrix(1 0 0 1 1289 1989)">design is preserved when submitting to Xcode.</text>
  <text id="template-version" style="stroke:none;fill:black;font-family:sans-serif;font-size:13;text-anchor:end;" transform="matrix(1 0 0 1 3036 1933)">Template v.2.0</text>
  <text style="stroke:none;fill:black;font-family:sans-serif;font-size:13;text-anchor:end;" transform="matrix(1 0 0 1 3036 1951)">Requires Xcode 13 or greater</text>
  <text id="descriptive-name" style="stroke:none;fill:black;font-family:sans-serif;font-size:13;text-anchor:end;" transform="matrix(1 0 0 1 3036 1969)">Generated from wifi.exclamationmark</text>
  <text style="stroke:none;fill:black;font-family:sans-serif;font-size:13;text-anchor:end;" transform="matrix(1 0 0 1 3036 1987)">Typeset at 100 points</text>
  <text style="stroke:none;fill:black;font-family:sans-serif;font-size:13;" transform="matrix(1 0 0 1 263 726)">Small</text>
  <text style="stroke:none;fill:black;font-family:sans-serif;font-size:13;" transform="matrix(1 0 0 1 263 1156)">Medium</text>
  <text style="stroke:none;fill:black;font-family:sans-serif;font-size:13;" transform="matrix(1 0 0 1 263 1586)">Large</text>
 </g>
 <g id="Guides">
  <g id="H-reference" style="fill:#27AAE1;stroke:none;" transform="matrix(1 0 0 1 339 696)">
   <path d="M0.976562 0L3.66211 0L29.3457-67.1387L30.0293-67.1387L30.0293-70.459L28.125-70.459ZM11.6699-24.4629L46.9727-24.4629L46.2402-26.709L12.4512-26.709ZM55.127 0L57.7637 0L30.6152-70.459L29.4434-70.459L29.4434-67.1387Z"/>
  </g>
  <line id="Baseline-S" style="fill:none;stroke:#27AAE1;opacity:1;stroke-width:0.5;" x1="263" x2="3036" y1="696" y2="696"/>
  <line id="Capline-S" style="fill:none;stroke:#27AAE1;opacity:1;stroke-width:0.5;" x1="263" x2="3036" y1="625.541" y2="625.541"/>
  <g id="H-reference" style="fill:#27AAE1;stroke:none;" transform="matrix(1 0 0 1 339 1126)">
   <path d="M0.976562 0L3.66211 0L29.3457-67.1387L30.0293-67.1387L30.0293-70.459L28.125-70.459ZM11.6699-24.4629L46.9727-24.4629L46.2402-26.709L12.4512-26.709ZM55.127 0L57.7637 0L30.6152-70.459L29.4434-70.459L29.4434-67.1387Z"/>
  </g>
  <line id="Baseline-M" style="fill:none;stroke:#27AAE1;opacity:1;stroke-width:0.5;" x1="263" x2="3036" y1="1126" y2="1126"/>
  <line id="Capline-M" style="fill:none;stroke:#27AAE1;opacity:1;stroke-width:0.5;" x1="263" x2="3036" y1="1055.54" y2="1055.54"/>
  <g id="H-reference" style="fill:#27AAE1;stroke:none;" transform="matrix(1 0 0 1 339 1556)">
   <path d="M0.976562 0L3.66211 0L29.3457-67.1387L30.0293-67.1387L30.0293-70.459L28.125-70.459ZM11.6699-24.4629L46.9727-24.4629L46.2402-26.709L12.4512-26.709ZM55.127 0L57.7637 0L30.6152-70.459L29.4434-70.459L29.4434-67.1387Z"/>
  </g>
  <line id="Baseline-L" style="fill:none;stroke:#27AAE1;opacity:1;stroke-width:0.5;" x1="263" x2="3036" y1="1556" y2="1556"/>
  <line id="Capline-L" style="fill:none;stroke:#27AAE1;opacity:1;stroke-width:0.5;" x1="263" x2="3036" y1="1485.54" y2="1485.54"/>
  <line id="left-margin" style="fill:none;stroke:#00AEEF;stroke-width:0.5;opacity:1.0;" x1="1384.12" x2="1384.12" y1="1030.79" y2="1150.12"/>
  <line id="right-margin" style="fill:none;stroke:#00AEEF;stroke-width:0.5;opacity:1.0;" x1="1515.57" x2="1515.57" y1="1030.79" y2="1150.12"/>
 </g>
 <g id="Symbols">
  <g id="Black-L" transform="matrix(1 0 0 1 2847.44 1556)">
   <path d="M85.9863 22.168Q90.1367 22.168 93.6035 20.2148Q97.0703 18.2617 99.1211 14.9902Q101.172 11.7188 101.172 7.66602Q101.172 3.61328 99.1211 0.341797Q97.0703-2.92969 93.6035-4.88281Q90.1367-6.83594 85.9863-6.83594Q81.7383-6.83594 78.2715-4.88281Q74.8047-2.92969 72.7539 0.341797Q70.7031 3.61328 70.7031 7.66602Q70.7031 11.7188 72.7539 14.9902Q74.8047 18.2617 78.2715 20.2148Q81.7383 22.168 85.9863 22.168ZM85.9863-15.8203Q91.9434-15.8203 95.0195-19.1895Q98.0957-22.5586 98.3398-28.6133Q98.4375-32.4219 98.6084-37.9395Q98.7793-43.457 98.999-49.707Q99.2188-55.957 99.4141-62.0605Q99.6094-68.1641 99.7314-73.2178Q99.8535-78.2715 99.9023-81.25Q99.9023-86.9141 96.1914-91.0156Q92.4805-95.1172 86.0352-95.1172Q81.6895-95.1172 78.5645-93.2373Q75.4395-91.3574 73.7305-88.208Q72.0215-85.0586 72.0215-81.25Q72.0703-78.2715 72.2168-73.2422Q72.3633-68.2129 72.5586-62.085Q72.7539-55.957 72.9492-49.707Q73.1445-43.457 73.3398-37.9395Q73.5352-32.4219 73.6328-28.6133Q73.877-22.5586 76.9531-19.1895Q80.0293-15.8203 85.9863-15.8203ZM62.0605-88.0859Q51.5625-85.6445 41.9922-81.2256Q32.4219-76.8066 24.3652-70.7764Q16.3086-64.7461 10.3516-57.4219Q9.22852-56.1523 9.32617-54.5166Q9.42383-52.8809 10.6445-51.6113L19.9707-42.0898Q21.3867-40.625 23.3398-40.6738Q25.293-40.7227 26.6602-42.2363Q34.375-50.3906 43.4814-55.957Q52.5879-61.5234 62.8418-64.4043ZM109.717-88.0859L108.936-64.4531Q119.238-61.6211 128.418-55.957Q137.598-50.293 145.459-42.0898Q146.777-40.7715 148.682-40.8203Q150.586-40.8691 151.953-42.2363L161.279-51.6113Q162.549-52.8809 162.622-54.5166Q162.695-56.1523 161.572-57.4219Q155.566-64.7461 147.51-70.8008Q139.453-76.8555 129.858-81.2744Q120.264-85.6934 109.717-88.0859ZM108.496-48.6816L107.764-24.3164Q110.791-22.6562 113.525-20.6055Q116.26-18.5547 118.555-16.1621Q119.922-14.6973 121.704-14.7461Q123.486-14.7949 125-16.2109L135.449-25.9766Q136.67-27.1973 136.792-28.7109Q136.914-30.2246 135.791-31.4453Q132.52-35.3027 128.271-38.5742Q124.023-41.8457 119.043-44.4092Q114.062-46.9727 108.496-48.6816ZM63.3789-48.6328Q55.0781-46.0449 48.0713-41.626Q41.0645-37.207 36.1816-31.4453Q35.0586-30.2246 35.1562-28.7109Q35.2539-27.1973 36.5234-25.9766L46.9727-16.1621Q48.4863-14.6973 50.3906-14.7949Q52.2949-14.8926 53.7598-16.4551Q55.957-18.75 58.5938-20.7275Q61.2305-22.7051 64.209-24.2188Z"/>
  </g>
  <g id="Heavy-L" transform="matrix(1 0 0 1 2551.22 1556)">
   <path d="M85.498 20.752Q89.2578 20.752 92.3828 18.9697Q95.5078 17.1875 97.3633 14.209Q99.2188 11.2305 99.2188 7.56836Q99.2188 3.85742 97.3633 0.878906Q95.5078-2.09961 92.3828-3.88184Q89.2578-5.66406 85.498-5.66406Q81.6895-5.66406 78.54-3.88184Q75.3906-2.09961 73.5352 0.878906Q71.6797 3.85742 71.6797 7.56836Q71.6797 11.2305 73.5352 14.209Q75.3906 17.1875 78.54 18.9697Q81.6895 20.752 85.498 20.752ZM85.498-14.9414Q90.5273-14.9414 93.2129-17.8223Q95.8984-20.7031 96.0938-25.8789Q96.1914-30.4688 96.3135-36.4014Q96.4355-42.334 96.6309-48.8281Q96.8262-55.3223 96.9727-61.6943Q97.1191-68.0664 97.2168-73.6328Q97.3145-79.1992 97.3633-83.2031Q97.3633-88.0859 94.165-91.5527Q90.9668-95.0195 85.5469-95.0195Q81.8848-95.0195 79.1992-93.4326Q76.5137-91.8457 75.0488-89.1602Q73.584-86.4746 73.584-83.2031Q73.6328-79.1992 73.7549-73.6572Q73.877-68.1152 74.0479-61.7188Q74.2188-55.3223 74.3652-48.8281Q74.5117-42.334 74.6826-36.4014Q74.8535-30.4688 74.9023-25.8789Q75.0977-20.7031 77.7588-17.8223Q80.4199-14.9414 85.498-14.9414ZM63.8184-87.6465Q53.0273-85.3516 43.1885-80.9814Q33.3496-76.6113 25.0977-70.5322Q16.8457-64.4531 10.8398-57.0312Q9.81445-55.9082 9.91211-54.4189Q10.0098-52.9297 11.084-51.8066L20.2148-42.4805Q21.4844-41.2109 23.2422-41.2354Q25-41.2598 26.2695-42.627Q34.3262-51.1719 43.9697-56.8359Q53.6133-62.5 64.4531-65.1855ZM106.982-87.5977L106.348-65.2344Q117.285-62.5977 126.978-56.8359Q136.67-51.0742 144.824-42.5293Q146.045-41.3086 147.754-41.3574Q149.463-41.4062 150.732-42.627L159.814-51.8066Q160.986-52.9297 161.06-54.4189Q161.133-55.9082 160.107-57.0312Q154.053-64.4531 145.801-70.5322Q137.549-76.6113 127.686-81.0059Q117.822-85.4004 106.982-87.5977ZM106.006-48.7305L105.42-25.5371Q109.033-23.877 112.28-21.582Q115.527-19.2871 118.164-16.5039Q119.385-15.1855 120.996-15.21Q122.607-15.2344 123.975-16.5527L134.18-26.2207Q135.303-27.3438 135.4-28.7109Q135.498-30.0781 134.473-31.2012Q131.152-35.1562 126.733-38.5254Q122.314-41.8945 117.09-44.4824Q111.865-47.0703 106.006-48.7305ZM64.8926-48.6816Q56.2012-46.1914 48.8525-41.6748Q41.5039-37.1582 36.5234-31.2012Q35.498-30.0781 35.5713-28.7109Q35.6445-27.3438 36.8164-26.2207L47.0215-16.5039Q48.4375-15.1367 50.1465-15.2344Q51.8555-15.332 53.1738-16.7969Q55.7129-19.4824 58.8623-21.7041Q62.0117-23.9258 65.5762-25.4883Z"/>
  </g>
  <g id="Bold-L" transform="matrix(1 0 0 1 2255.04 1556)">
   <path d="M84.9609 19.1895Q88.2812 19.1895 91.04 17.6025Q93.7988 16.0156 95.4346 13.3545Q97.0703 10.6934 97.0703 7.42188Q97.0703 4.15039 95.4346 1.48926Q93.7988-1.17188 91.04-2.75879Q88.2812-4.3457 84.9609-4.3457Q81.5918-4.3457 78.833-2.75879Q76.0742-1.17188 74.4385 1.48926Q72.8027 4.15039 72.8027 7.42188Q72.8027 10.6934 74.4385 13.3545Q76.0742 16.0156 78.833 17.6025Q81.5918 19.1895 84.9609 19.1895ZM84.9609-14.0137Q89.0137-14.0137 91.2109-16.333Q93.4082-18.6523 93.5547-22.8027Q93.6523-28.3203 93.75-34.7168Q93.8477-41.1133 93.9941-47.8516Q94.1406-54.5898 94.2383-61.2793Q94.3359-67.9688 94.4336-74.1211Q94.5312-80.2734 94.5801-85.4004Q94.5801-89.3555 91.9434-92.1143Q89.3066-94.873 84.9609-94.873Q82.0801-94.873 79.9072-93.6279Q77.7344-92.3828 76.5137-90.21Q75.293-88.0371 75.293-85.4004Q75.3418-80.2734 75.4395-74.1211Q75.5371-67.9688 75.6836-61.2793Q75.8301-54.5898 75.9521-47.8516Q76.0742-41.1133 76.1963-34.7168Q76.3184-28.3203 76.3672-22.8027Q76.5137-18.6523 78.7109-16.333Q80.9082-14.0137 84.9609-14.0137ZM65.7715-87.1094Q54.7363-85.0098 44.5801-80.6885Q34.4238-76.3672 25.9521-70.2393Q17.4805-64.1113 11.377-56.6406Q10.498-55.6152 10.5713-54.3213Q10.6445-53.0273 11.6211-52.002L20.5078-42.9688Q21.6309-41.8457 23.1689-41.8701Q24.707-41.8945 25.8301-43.1152Q34.2773-52.002 44.5068-57.7881Q54.7363-63.5742 66.2598-66.0645ZM103.955-87.1094L103.516-66.0645Q115.088-63.6719 125.366-57.8125Q135.645-51.9531 144.189-43.0176Q145.264-41.9434 146.753-41.9678Q148.242-41.9922 149.365-43.1152L158.252-52.002Q159.277-53.0273 159.326-54.3213Q159.375-55.6152 158.496-56.6406Q152.344-64.1113 143.872-70.2393Q135.4-76.3672 125.269-80.7129Q115.137-85.0586 103.955-87.1094ZM103.271-48.7793L102.832-26.9531Q107.129-25.2441 110.913-22.6562Q114.697-20.0684 117.676-16.8945Q118.799-15.7227 120.215-15.7471Q121.631-15.7715 122.852-16.9434L132.764-26.5137Q133.789-27.4902 133.862-28.7109Q133.936-29.9316 133.057-30.9082Q129.639-35.0098 125.024-38.4766Q120.41-41.9434 114.917-44.5801Q109.424-47.2168 103.271-48.7793ZM66.6504-48.7305Q57.4219-46.3379 49.7314-41.7236Q42.041-37.1094 36.8652-30.9082Q35.9863-29.9316 36.0596-28.7109Q36.1328-27.4902 37.1582-26.5137L47.1191-16.8457Q48.3398-15.6738 49.8535-15.7715Q51.3672-15.8691 52.5391-17.1387Q55.4199-20.2637 59.1553-22.7783Q62.8906-25.293 67.1387-26.9531Z"/>
  </g>
  <g id="Semibold-L" transform="matrix(1 0 0 1 1958.7 1556)">
   <path d="M84.5703 18.0664Q87.5488 18.0664 90.0635 16.626Q92.5781 15.1855 94.0674 12.7441Q95.5566 10.3027 95.5566 7.32422Q95.5566 4.3457 94.0674 1.9043Q92.5781-0.537109 90.0635-1.97754Q87.5488-3.41797 84.5703-3.41797Q81.543-3.41797 79.0283-1.97754Q76.5137-0.537109 75.0488 1.87988Q73.584 4.29688 73.584 7.32422Q73.584 10.3027 75.0488 12.7441Q76.5137 15.1855 79.0283 16.626Q81.543 18.0664 84.5703 18.0664ZM84.5703-13.3301Q87.8906-13.3301 89.7949-15.2832Q91.6992-17.2363 91.7969-20.6543Q91.8945-26.8066 91.9678-33.5205Q92.041-40.2344 92.1387-47.168Q92.2363-54.1016 92.334-60.9863Q92.4316-67.8711 92.5049-74.4141Q92.5781-80.957 92.627-86.8652Q92.627-90.2344 90.3809-92.5049Q88.1348-94.7754 84.5703-94.7754Q82.1777-94.7754 80.3711-93.75Q78.5645-92.7246 77.5146-90.918Q76.4648-89.1113 76.4648-86.8652Q76.5137-80.957 76.6113-74.4141Q76.709-67.8711 76.8066-60.9863Q76.9043-54.1016 77.002-47.168Q77.0996-40.2344 77.1973-33.5205Q77.2949-26.8066 77.3438-20.6543Q77.4902-17.2363 79.3701-15.2832Q81.25-13.3301 84.5703-13.3301ZM67.1387-86.7676Q55.8594-84.7656 45.5078-80.4688Q35.1562-76.1719 26.5381-70.0195Q17.9199-63.8672 11.7676-56.3477Q10.9375-55.4199 11.0107-54.248Q11.084-53.0762 11.9629-52.1484L20.6543-43.3105Q21.7285-42.2363 23.1201-42.2607Q24.5117-42.2852 25.5371-43.4082Q34.2285-52.5879 44.8486-58.4473Q55.4688-64.3066 67.4805-66.6504ZM101.855-86.7188L101.514-66.6504Q113.574-64.4043 124.243-58.4717Q134.912-52.5391 143.701-43.3105Q144.727-42.334 146.069-42.3584Q147.412-42.3828 148.438-43.457L157.129-52.1484Q158.105-53.0762 158.13-54.248Q158.154-55.4199 157.324-56.3477Q151.123-63.8672 142.529-70.0195Q133.936-76.1719 123.584-80.4932Q113.232-84.8145 101.855-86.7188ZM101.318-48.7793L101.025-27.9297Q105.762-26.1719 109.937-23.3887Q114.111-20.6055 117.334-17.1387Q118.359-16.0645 119.629-16.0889Q120.898-16.1133 122.021-17.1875L131.787-26.6602Q132.715-27.5879 132.788-28.6865Q132.861-29.7852 132.031-30.7129Q128.613-34.9121 123.853-38.4521Q119.092-41.9922 113.403-44.6533Q107.715-47.3145 101.318-48.7793ZM67.8223-48.7793Q58.252-46.4355 50.3174-41.748Q42.3828-37.0605 37.1094-30.7129Q36.2793-29.7852 36.3525-28.6865Q36.4258-27.5879 37.3535-26.6602L47.1191-17.0898Q48.291-16.0156 49.6338-16.1133Q50.9766-16.2109 52.0996-17.3828Q55.2246-20.8008 59.3506-23.5107Q63.4766-26.2207 68.1641-27.9297Z"/>
  </g>
  <g id="Medium-L" transform="matrix(1 0 0 1 1662.28 1556)">
   <path d="M84.2773 17.2363Q87.0605 17.2363 89.3555 15.8936Q91.6504 14.5508 93.0176 12.2803Q94.3848 10.0098 94.3848 7.27539Q94.3848 4.49219 93.0176 2.22168Q91.6504-0.0488281 89.3555-1.3916Q87.0605-2.73438 84.2773-2.73438Q81.4941-2.73438 79.1992-1.3916Q76.9043-0.0488281 75.5371 2.19727Q74.1699 4.44336 74.1699 7.27539Q74.1699 10.0098 75.5371 12.2803Q76.9043 14.5508 79.1992 15.8936Q81.4941 17.2363 84.2773 17.2363ZM84.3262-12.793Q87.1094-12.793 88.7695-14.4775Q90.4297-16.1621 90.4785-19.043Q90.5273-25.6836 90.6006-32.6172Q90.6738-39.5508 90.7715-46.6309Q90.8691-53.7109 90.918-60.7666Q90.9668-67.8223 91.0156-74.6582Q91.0645-81.4941 91.1133-88.0371Q91.1133-90.918 89.1846-92.8223Q87.2559-94.7266 84.2773-94.7266Q82.2754-94.7266 80.7373-93.8721Q79.1992-93.0176 78.2959-91.4795Q77.3926-89.9414 77.3926-88.0371Q77.4414-81.4941 77.5146-74.6582Q77.5879-67.8223 77.6855-60.7666Q77.7832-53.7109 77.8564-46.6309Q77.9297-39.5508 78.0029-32.6172Q78.0762-25.6836 78.125-19.043Q78.2227-16.1621 79.8584-14.4775Q81.4941-12.793 84.3262-12.793ZM68.1641-86.4746Q56.7383-84.5703 46.2158-80.2979Q35.6934-76.0254 26.9531-69.873Q18.2129-63.7207 12.0117-56.1523Q11.3281-55.2734 11.377-54.1992Q11.4258-53.125 12.2559-52.2461L20.8008-43.5547Q21.7773-42.5781 23.0469-42.6025Q24.3164-42.627 25.293-43.6523Q34.1797-53.0273 45.1172-58.96Q56.0547-64.8926 68.457-67.0898ZM100.244-86.4258L100-67.0898Q112.451-64.9902 123.413-59.0088Q134.375-53.0273 143.359-43.5547Q144.287-42.6758 145.508-42.7002Q146.729-42.7246 147.705-43.7012L156.25-52.2461Q157.178-53.125 157.202-54.1992Q157.227-55.2734 156.494-56.1523Q150.244-63.6719 141.528-69.873Q132.812-76.0742 122.314-80.3467Q111.816-84.6191 100.244-86.4258ZM99.9023-48.7793L99.6582-28.6621Q104.736-26.8555 109.229-23.9502Q113.721-21.0449 117.09-17.3828Q118.018-16.3574 119.214-16.3818Q120.41-16.4062 121.436-17.3828L131.055-26.8066Q131.885-27.6367 131.958-28.6621Q132.031-29.6875 131.25-30.5664Q127.783-34.8145 122.949-38.4033Q118.115-41.9922 112.256-44.6777Q106.396-47.3633 99.9023-48.7793ZM68.7012-48.7793Q58.9355-46.5332 50.7812-41.7725Q42.627-37.0117 37.3047-30.5664Q36.5234-29.6875 36.5967-28.6865Q36.6699-27.6855 37.5488-26.8066L47.168-17.2852Q48.2422-16.2598 49.4873-16.3574Q50.7324-16.4551 51.7578-17.5781Q55.0781-21.2402 59.4971-24.0967Q63.916-26.9531 68.9941-28.7109Z"/>
  </g>
  <g id="Regular-L" transform="matrix(1 0 0 1 1365.93 1556)">
   <path d="M83.8867 16.1621Q86.377 16.1621 88.4277 14.9414Q90.4785 13.7207 91.6992 11.6699Q92.9199 9.61914 92.9199 7.17773Q92.9199 4.6875 91.6992 2.63672Q90.4785 0.585938 88.4277-0.634766Q86.377-1.85547 83.8867-1.85547Q81.4453-1.85547 79.3945-0.634766Q77.3438 0.585938 76.123 2.6123Q74.9023 4.63867 74.9023 7.17773Q74.9023 9.61914 76.123 11.6699Q77.3438 13.7207 79.3945 14.9414Q81.4453 16.1621 83.8867 16.1621ZM83.9355-12.1582Q86.0352-12.1582 87.3779-13.4521Q88.7207-14.7461 88.7695-16.9434Q88.8184-24.2188 88.8672-31.4697Q88.916-38.7207 88.9648-45.9717Q89.0137-53.2227 89.0381-60.4736Q89.0625-67.7246 89.1113-74.9756Q89.1602-82.2266 89.209-89.502Q89.209-91.7969 87.6465-93.2129Q86.084-94.6289 83.8867-94.6289Q82.4219-94.6289 81.2256-93.9941Q80.0293-93.3594 79.2969-92.1875Q78.5645-91.0156 78.5645-89.502Q78.6133-82.2266 78.6621-74.9756Q78.7109-67.7246 78.7842-60.4736Q78.8574-53.2227 78.9062-45.9717Q78.9551-38.7207 79.0039-31.4697Q79.0527-24.2188 79.1016-16.9434Q79.1504-14.7461 80.4688-13.4521Q81.7871-12.1582 83.9355-12.1582ZM69.4824-86.1328Q57.8613-84.3262 47.1436-80.1025Q36.4258-75.8789 27.5391-69.6777Q18.6523-63.4766 12.4023-55.8594Q11.7676-55.0781 11.8164-54.126Q11.8652-53.1738 12.5977-52.3926L20.9961-43.8477Q21.875-43.0176 22.998-43.0176Q24.1211-43.0176 25-43.9453Q34.1309-53.6133 45.4834-59.6191Q56.8359-65.625 69.6777-67.6758ZM98.1934-86.084L98.0469-67.6758Q110.938-65.7227 122.29-59.668Q133.643-53.6133 142.871-43.8965Q143.75-43.0664 144.824-43.0908Q145.898-43.1152 146.777-43.9941L155.176-52.3926Q156.006-53.1738 156.006-54.126Q156.006-55.0781 155.371-55.8594Q149.072-63.4277 140.21-69.6533Q131.348-75.8789 120.654-80.127Q109.961-84.375 98.1934-86.084ZM97.998-48.8281L97.8516-29.5898Q103.418-27.7832 108.276-24.6826Q113.135-21.582 116.797-17.627Q117.627-16.6992 118.677-16.7236Q119.727-16.748 120.654-17.627L130.078-27.002Q130.859-27.7344 130.908-28.6621Q130.957-29.5898 130.273-30.3711Q126.758-34.7168 121.777-38.3789Q116.797-42.041 110.767-44.751Q104.736-47.4609 97.998-48.8281ZM69.873-48.8281Q59.7656-46.6309 51.3672-41.7969Q42.9688-36.9629 37.5488-30.3711Q36.8652-29.5898 36.9141-28.6865Q36.9629-27.7832 37.7441-27.002L47.2168-17.5293Q48.1934-16.6016 49.292-16.6992Q50.3906-16.7969 51.3184-17.8223Q54.8828-21.7773 59.6924-24.8291Q64.502-27.8809 70.0195-29.6875Z"/>
  </g>
  <g id="Light-L" transform="matrix(1 0 0 1 1070.44 1556)">
   <path d="M82.666 14.8438Q84.9121 14.8438 86.792 13.7207Q88.6719 12.5977 89.7705 10.7422Q90.8691 8.88672 90.8691 6.68945Q90.8691 4.39453 89.7705 2.53906Q88.6719 0.683594 86.792-0.415039Q84.9121-1.51367 82.666-1.51367Q80.4688-1.51367 78.5889-0.415039Q76.709 0.683594 75.6104 2.53906Q74.5117 4.39453 74.5117 6.68945Q74.5117 8.88672 75.6104 10.7422Q76.709 12.5977 78.5889 13.7207Q80.4688 14.8438 82.666 14.8438ZM82.7148-10.6934Q84.3262-10.6934 85.3516-11.6943Q86.377-12.6953 86.377-14.4043Q86.4258-22.0215 86.4502-29.6631Q86.4746-37.3047 86.499-44.9219Q86.5234-52.5391 86.5479-60.1807Q86.5723-67.8223 86.5967-75.4395Q86.6211-83.0566 86.6699-90.6738Q86.6699-92.4316 85.5225-93.5059Q84.375-94.5801 82.666-94.5801Q81.543-94.5801 80.6396-94.0918Q79.7363-93.6035 79.1992-92.7246Q78.6621-91.8457 78.6621-90.6738Q78.7109-83.0566 78.7354-75.4395Q78.7598-67.8223 78.8086-60.1807Q78.8574-52.5391 78.8818-44.9219Q78.9062-37.3047 78.9551-29.6631Q79.0039-22.0215 79.0039-14.4043Q79.0527-12.6953 80.0537-11.6943Q81.0547-10.6934 82.7148-10.6934ZM69.9707-85.8398Q58.2031-84.2285 47.2412-80.0781Q36.2793-75.9277 27.1729-69.7021Q18.0664-63.4766 11.7676-55.8105Q11.1816-55.0293 11.2305-54.1504Q11.2793-53.2715 11.9629-52.4902L19.9219-44.4336Q20.752-43.6523 21.7773-43.6523Q22.8027-43.6523 23.6328-44.5312Q33.0078-54.3945 44.8242-60.498Q56.6406-66.6016 70.0684-68.457ZM95.2637-85.791L95.166-68.5059Q108.691-66.6992 120.557-60.5957Q132.422-54.4922 141.797-44.4824Q142.627-43.6523 143.604-43.6768Q144.58-43.7012 145.41-44.5312L153.418-52.4902Q154.15-53.2715 154.175-54.1504Q154.199-55.0293 153.564-55.8105Q147.217-63.4766 138.135-69.7021Q129.053-75.9277 118.115-80.1025Q107.178-84.2773 95.2637-85.791ZM95.166-48.6816L95.0684-30.6152Q101.074-28.9551 106.396-25.708Q111.719-22.4609 115.674-18.2129Q116.455-17.334 117.432-17.334Q118.408-17.334 119.238-18.1641L128.32-27.1484Q129.004-27.832 129.053-28.6865Q129.102-29.541 128.467-30.2734Q124.902-34.7168 119.751-38.4033Q114.6-42.0898 108.325-44.751Q102.051-47.4121 95.166-48.6816ZM70.2148-48.6816Q59.8633-46.6309 51.123-41.7969Q42.3828-36.9629 36.8652-30.2734Q36.2793-29.541 36.3281-28.7109Q36.377-27.8809 37.0605-27.1484L46.1426-18.0664Q47.0215-17.2363 48.0225-17.3096Q49.0234-17.3828 49.9023-18.3594Q53.7598-22.6074 59.0576-25.7812Q64.3555-28.9551 70.3125-30.6641Z"/>
  </g>
  <g id="Thin-L" transform="matrix(1 0 0 1 775.343 1556)">
   <path d="M81.0547 13.0859Q83.0078 13.0859 84.6436 12.1094Q86.2793 11.1328 87.2559 9.52148Q88.2324 7.91016 88.2324 6.00586Q88.2324 4.05273 87.2559 2.44141Q86.2793 0.830078 84.6436-0.146484Q83.0078-1.12305 81.0547-1.12305Q79.1504-1.12305 77.5146-0.170898Q75.8789 0.78125 74.9268 2.41699Q73.9746 4.05273 73.9746 6.00586Q73.9746 7.91016 74.9268 9.52148Q75.8789 11.1328 77.5146 12.1094Q79.1504 13.0859 81.0547 13.0859ZM81.1035-8.74023Q82.0312-8.74023 82.6416-9.35059Q83.252-9.96094 83.252-10.9863Q83.252-19.1406 83.252-27.2705Q83.252-35.4004 83.2764-43.5303Q83.3008-51.6602 83.3008-59.79Q83.3008-67.9199 83.3008-76.0498Q83.3008-84.1797 83.3008-92.2852Q83.3008-93.3105 82.7148-93.8965Q82.1289-94.4824 81.0547-94.4824Q80.3711-94.4824 79.8828-94.2139Q79.3945-93.9453 79.126-93.457Q78.8574-92.9688 78.8574-92.2852Q78.8574-84.1797 78.8574-76.0498Q78.8574-67.9199 78.8818-59.79Q78.9062-51.6602 78.9062-43.5303Q78.9062-35.4004 78.9062-27.2705Q78.9062-19.1406 78.9062-10.9863Q78.9062-9.96094 79.4922-9.35059Q80.0781-8.74023 81.1035-8.74023ZM70.5566-85.4492Q58.5938-84.1309 47.3145-80.0537Q36.0352-75.9766 26.6846-69.751Q17.334-63.5254 10.9375-55.7129Q10.3516-54.9805 10.4004-54.1748Q10.4492-53.3691 11.084-52.6855L18.5547-45.166Q19.2871-44.4824 20.166-44.4824Q21.0449-44.4824 21.7773-45.2637Q31.543-55.4199 43.9697-61.6455Q56.3965-67.8711 70.6055-69.4824ZM91.4062-85.4492L91.3574-69.5801Q105.713-67.9199 118.262-61.792Q130.811-55.6641 140.381-45.2637Q141.113-44.4824 141.992-44.4824Q142.871-44.4824 143.604-45.2148L151.074-52.6855Q151.758-53.3691 151.782-54.1748Q151.807-54.9805 151.172-55.7129Q144.727-63.4766 135.376-69.7021Q126.025-75.9277 114.746-80.0293Q103.467-84.1309 91.4062-85.4492ZM91.4062-48.4375L91.3574-32.0312Q97.9492-30.4688 103.906-27.0508Q109.863-23.6328 114.209-19.043Q114.941-18.1641 115.796-18.1641Q116.65-18.1641 117.432-18.7988L125.977-27.3438Q126.611-27.9297 126.66-28.7109Q126.709-29.4922 126.123-30.1758Q122.461-34.7656 117.065-38.4766Q111.67-42.1875 105.103-44.751Q98.5352-47.3145 91.4062-48.4375ZM70.6543-48.4375Q59.9609-46.6797 50.7812-41.8457Q41.6016-37.0117 35.9863-30.1758Q35.4492-29.4922 35.498-28.7354Q35.5469-27.9785 36.1816-27.3438L44.7754-18.8477Q45.5078-18.1152 46.3623-18.1641Q47.2168-18.2129 47.998-19.0918Q52.2949-23.6816 58.2031-27.0508Q64.1113-30.4199 70.6543-32.0312Z"/>
  </g>
  <g id="Ultralight-L" transform="matrix(1 0 0 1 479.462 1556)">
   <path d="M80.2734 12.207Q82.0312 12.207 83.5205 11.3037Q85.0098 10.4004 85.9131 8.91113Q86.8164 7.42188 86.8164 5.66406Q86.8164 3.85742 85.9131 2.39258Q85.0098 0.927734 83.5205 0.0244141Q82.0312-0.878906 80.2734-0.878906Q78.5156-0.878906 77.002 0Q75.4883 0.878906 74.585 2.36816Q73.6816 3.85742 73.6816 5.66406Q73.6816 7.42188 74.585 8.91113Q75.4883 10.4004 77.002 11.3037Q78.5156 12.207 80.2734 12.207ZM80.2734-7.76367Q80.8594-7.76367 81.25-8.17871Q81.6406-8.59375 81.6406-9.27734Q81.6406-17.627 81.6162-26.0254Q81.5918-34.4238 81.5918-42.7979Q81.5918-51.1719 81.5918-59.5703Q81.5918-67.9688 81.5918-76.3428Q81.5918-84.7168 81.5918-93.0664Q81.5918-93.75 81.2744-94.0918Q80.957-94.4336 80.2734-94.4336Q79.7852-94.4336 79.4922-94.2871Q79.1992-94.1406 79.0527-93.8232Q78.9062-93.5059 78.9062-93.0664Q78.9551-84.7168 78.9307-76.3428Q78.9062-67.9688 78.9062-59.5703Q78.9062-51.1719 78.8818-42.7979Q78.8574-34.4238 78.8574-26.0254Q78.8574-17.627 78.8086-9.27734Q78.8086-8.59375 79.1748-8.17871Q79.541-7.76367 80.2734-7.76367ZM70.8984-85.2539Q58.8379-84.0332 47.3877-80.0293Q35.9375-76.0254 26.4404-69.7754Q16.9434-63.5254 10.5469-55.6641Q9.96094-54.9316 10.0098-54.1748Q10.0586-53.418 10.6445-52.7344L17.8223-45.5566Q18.5059-44.873 19.3115-44.8975Q20.1172-44.9219 20.8496-45.6543Q30.7617-55.957 43.5303-62.2559Q56.2988-68.5547 70.8984-70.0195ZM89.4531-85.2539L89.4043-70.1172Q104.15-68.6035 117.065-62.4268Q129.98-56.25 139.648-45.6543Q140.332-44.873 141.162-44.873Q141.992-44.873 142.676-45.6055L149.854-52.7344Q150.488-53.418 150.513-54.1748Q150.537-54.9316 149.902-55.6641Q143.506-63.5254 133.984-69.751Q124.463-75.9766 113.013-80.0049Q101.562-84.0332 89.4531-85.2539ZM89.4531-48.3398L89.4531-32.7148Q96.3867-31.25 102.661-27.7588Q108.936-24.2676 113.428-19.4336Q114.16-18.6035 114.966-18.5791Q115.771-18.5547 116.455-19.1895L124.756-27.4414Q125.342-28.0273 125.391-28.7354Q125.439-29.4434 124.902-30.0781Q121.24-34.7656 115.698-38.501Q110.156-42.2363 103.442-44.751Q96.7285-47.2656 89.4531-48.3398ZM70.8496-48.3398Q60.0098-46.6797 50.6104-41.8457Q41.2109-37.0117 35.5469-30.0781Q35.0586-29.4434 35.1074-28.7354Q35.1562-28.0273 35.6934-27.4414L44.043-19.1895Q44.7266-18.5547 45.5078-18.5791Q46.2891-18.6035 47.0703-19.4336Q51.5625-24.2188 57.7881-27.6855Q64.0137-31.1523 70.8496-32.666Z"/>
  </g>
  <g id="Black-M" transform="matrix(1 0 0 1 2866.8 1126)">
   <path d="M66.6016 10.0098Q70.1172 10.0098 73.0225 8.39844Q75.9277 6.78711 77.6611 4.05273Q79.3945 1.31836 79.3945-2.05078Q79.3945-5.41992 77.6611-8.1543Q75.9277-10.8887 73.0225-12.5Q70.1172-14.1113 66.6016-14.1113Q63.0371-14.1113 60.1318-12.5Q57.2266-10.8887 55.4932-8.1543Q53.7598-5.41992 53.7598-2.05078Q53.7598 1.31836 55.4932 4.05273Q57.2266 6.78711 60.1318 8.39844Q63.0371 10.0098 66.6016 10.0098ZM66.6016-20.459Q71.8262-20.459 74.4629-23.3643Q77.0996-26.2695 77.3438-31.5918Q77.3926-33.9355 77.5635-37.9883Q77.7344-42.041 77.9053-46.8262Q78.0762-51.6113 78.2715-56.25Q78.4668-60.8887 78.5645-64.4775Q78.6621-68.0664 78.6621-69.6777Q78.6621-74.5605 75.5127-78.1494Q72.3633-81.7383 66.6504-81.7383Q60.9375-81.7383 57.7393-78.1494Q54.541-74.5605 54.541-69.6777Q54.541-68.0664 54.6631-64.4775Q54.7852-60.8887 54.9561-56.25Q55.127-51.6113 55.3223-46.8506Q55.5176-42.0898 55.6641-38.0127Q55.8105-33.9355 55.9082-31.5918Q56.1035-26.2695 58.7402-23.3643Q61.377-20.459 66.6016-20.459ZM46.6797-76.5137Q38.7695-74.5117 31.4941-71.0938Q24.2188-67.6758 18.0664-63.0127Q11.9141-58.3496 7.37305-52.6855Q6.44531-51.6602 6.51855-50.2686Q6.5918-48.877 7.61719-47.8516L14.8926-40.3809Q16.0645-39.1602 17.7002-39.209Q19.3359-39.2578 20.5078-40.4785Q26.2695-46.582 33.0566-50.8545Q39.8438-55.127 47.4121-57.4219ZM86.3281-76.5137L85.6445-57.4707Q93.3105-55.1758 100.146-50.8545Q106.982-46.5332 112.842-40.3809Q113.965-39.2578 115.576-39.3066Q117.188-39.3555 118.311-40.5273L125.586-47.8516Q126.66-48.877 126.709-50.2686Q126.758-51.6602 125.83-52.6855Q121.24-58.3984 115.063-63.0615Q108.887-67.7246 101.587-71.1426Q94.2871-74.5605 86.3281-76.5137ZM85.2051-45.5566L84.5215-26.0254Q86.5723-24.8535 88.4033-23.4131Q90.2344-21.9727 91.8457-20.3613Q92.9688-19.1406 94.4824-19.1895Q95.9961-19.2383 97.2656-20.3613L105.42-27.9297Q106.445-28.9062 106.543-30.1758Q106.641-31.4453 105.713-32.5195Q101.953-36.8164 96.6797-40.1855Q91.4062-43.5547 85.2051-45.5566ZM47.9004-45.5078Q41.748-43.457 36.499-40.1367Q31.25-36.8164 27.4902-32.5195Q26.5625-31.4453 26.6602-30.1758Q26.7578-28.9062 27.7832-27.9297L35.9375-20.3613Q37.207-19.1406 38.8184-19.2139Q40.4297-19.2871 41.6504-20.6055Q43.2129-22.168 44.9707-23.4863Q46.7285-24.8047 48.6328-25.9277Z"/>
  </g>
  <g id="Heavy-M" transform="matrix(1 0 0 1 2570.28 1126)">
   <path d="M66.4062 8.93555Q69.5801 8.93555 72.1924 7.44629Q74.8047 5.95703 76.3672 3.4668Q77.9297 0.976562 77.9297-2.05078Q77.9297-5.12695 76.3672-7.61719Q74.8047-10.1074 72.1924-11.5723Q69.5801-13.0371 66.4062-13.0371Q63.1836-13.0371 60.5713-11.5723Q57.959-10.1074 56.3965-7.61719Q54.834-5.12695 54.834-2.05078Q54.834 0.976562 56.3965 3.4668Q57.959 5.95703 60.5713 7.44629Q63.1836 8.93555 66.4062 8.93555ZM66.4062-19.9219Q70.8496-19.9219 73.1445-22.4121Q75.4395-24.9023 75.6348-29.4434Q75.6836-32.5195 75.8301-36.8896Q75.9766-41.2598 76.123-46.1914Q76.2695-51.123 76.416-55.957Q76.5625-60.791 76.6602-64.7949Q76.7578-68.7988 76.7578-71.3379Q76.7578-75.5371 73.999-78.5889Q71.2402-81.6406 66.4551-81.6406Q61.6211-81.6406 58.8135-78.5889Q56.0059-75.5371 56.0059-71.3379Q56.0547-68.7988 56.1523-64.7949Q56.25-60.791 56.3965-55.957Q56.543-51.123 56.7139-46.2158Q56.8848-41.3086 57.0068-36.9141Q57.1289-32.5195 57.1777-29.4434Q57.373-24.9023 59.668-22.4121Q61.9629-19.9219 66.4062-19.9219ZM48.3398-76.123Q40.1855-74.2188 32.6904-70.8252Q25.1953-67.4316 18.8965-62.7441Q12.5977-58.0566 8.00781-52.3438Q7.17773-51.416 7.22656-50.1709Q7.27539-48.9258 8.20312-47.998L15.3809-40.6738Q16.4551-39.5508 17.9199-39.5996Q19.3848-39.6484 20.4102-40.7715Q26.4648-47.168 33.667-51.5137Q40.8691-55.8594 48.9258-58.0078ZM84.3262-76.123L83.7402-58.0566Q91.8945-55.9082 99.1211-51.5137Q106.348-47.1191 112.5-40.6738Q113.525-39.6484 114.966-39.6973Q116.406-39.7461 117.432-40.8203L124.561-47.998Q125.537-48.9258 125.586-50.1709Q125.635-51.416 124.805-52.3438Q120.166-58.1055 113.843-62.793Q107.52-67.4805 100.024-70.874Q92.5293-74.2676 84.3262-76.123ZM83.3984-45.6055L82.8613-27.0508Q85.3516-25.7812 87.5977-24.1211Q89.8438-22.4609 91.6992-20.5566Q92.7246-19.4824 94.0674-19.5068Q95.4102-19.5312 96.582-20.5566L104.59-28.125Q105.518-29.0039 105.591-30.1514Q105.664-31.2988 104.834-32.2754Q101.025-36.7188 95.4834-40.21Q89.9414-43.7012 83.3984-45.6055ZM49.3164-45.6055Q42.8223-43.6035 37.3291-40.1855Q31.8359-36.7676 27.9785-32.2754Q27.1484-31.2988 27.2217-30.1514Q27.2949-29.0039 28.2227-28.125L36.2305-20.5566Q37.4023-19.4336 38.8428-19.5068Q40.2832-19.5801 41.4062-20.8008Q43.2129-22.6562 45.3857-24.2188Q47.5586-25.7812 49.9023-26.9531Z"/>
  </g>
  <g id="Bold-M" transform="matrix(1 0 0 1 2273.82 1126)">
   <path d="M66.1621 7.71484Q68.9453 7.71484 71.2646 6.39648Q73.584 5.07812 74.9268 2.85645Q76.2695 0.634766 76.2695-2.09961Q76.2695-4.78516 74.9268-7.00684Q73.584-9.22852 71.2646-10.5225Q68.9453-11.8164 66.1621-11.8164Q63.3789-11.8164 61.084-10.5225Q58.7891-9.22852 57.4219-7.00684Q56.0547-4.78516 56.0547-2.09961Q56.0547 0.634766 57.4219 2.85645Q58.7891 5.07812 61.084 6.39648Q63.3789 7.71484 66.1621 7.71484ZM66.2109-19.3359Q69.7754-19.3359 71.7041-21.3623Q73.6328-23.3887 73.7793-27.0996Q73.8281-30.957 73.9258-35.6934Q74.0234-40.4297 74.1455-45.5078Q74.2676-50.5859 74.3652-55.6152Q74.4629-60.6445 74.5361-65.1367Q74.6094-69.6289 74.6582-73.1445Q74.6582-76.6602 72.3389-79.1016Q70.0195-81.543 66.2109-81.543Q62.3535-81.543 60.0342-79.1016Q57.7148-76.6602 57.7148-73.1445Q57.7148-69.6289 57.8125-65.1367Q57.9102-60.6445 58.0078-55.6152Q58.1055-50.5859 58.252-45.5078Q58.3984-40.4297 58.4961-35.6934Q58.5938-30.957 58.6426-27.0996Q58.7891-23.3887 60.6934-21.3623Q62.5977-19.3359 66.2109-19.3359ZM50.1465-75.6836Q41.748-73.9258 34.0332-70.5566Q26.3184-67.1875 19.8486-62.4756Q13.3789-57.7637 8.69141-51.9531Q8.00781-51.1719 8.05664-50.0977Q8.10547-49.0234 8.88672-48.1445L15.918-41.0156Q16.8457-40.0391 18.1396-40.0635Q19.4336-40.0879 20.3613-41.0645Q26.709-47.8027 34.375-52.2461Q42.041-56.6895 50.6348-58.6914ZM82.0801-75.6348L81.6406-58.6914Q90.2832-56.7383 97.9736-52.2461Q105.664-47.7539 112.109-41.0156Q113.037-40.0879 114.282-40.1367Q115.527-40.1855 116.455-41.1133L123.438-48.1445Q124.316-49.0234 124.341-50.0977Q124.365-51.1719 123.633-51.9531Q118.945-57.7637 112.476-62.5Q106.006-67.2363 98.291-70.6055Q90.5762-73.9746 82.0801-75.6348ZM81.3965-45.7031L81.0059-28.1738Q84.0332-26.8555 86.6943-24.9512Q89.3555-23.0469 91.5039-20.8008Q92.4316-19.8242 93.6035-19.873Q94.7754-19.9219 95.8008-20.8496L103.662-28.3691Q104.443-29.1504 104.517-30.1758Q104.59-31.2012 103.857-32.0312Q99.9512-36.6699 94.1406-40.2588Q88.3301-43.8477 81.3965-45.7031ZM50.9277-45.7031Q44.043-43.7988 38.2568-40.2588Q32.4707-36.7188 28.5156-32.0312Q27.7832-31.2012 27.832-30.1758Q27.8809-29.1504 28.7109-28.3691L36.5723-20.8008Q37.5977-19.8242 38.8672-19.8975Q40.1367-19.9707 41.1133-21.0449Q43.2129-23.2422 45.8252-25.0488Q48.4375-26.8555 51.3672-28.1738Z"/>
  </g>
  <g id="Semibold-M" transform="matrix(1 0 0 1 1977.28 1126)">
   <path d="M66.0156 6.83594Q68.5059 6.83594 70.6055 5.63965Q72.7051 4.44336 73.9258 2.41699Q75.1465 0.390625 75.1465-2.09961Q75.1465-4.54102 73.9258-6.56738Q72.7051-8.59375 70.6055-9.79004Q68.5059-10.9863 66.0156-10.9863Q63.4766-10.9863 61.4014-9.81445Q59.3262-8.64258 58.0811-6.5918Q56.8359-4.54102 56.8359-2.09961Q56.8359 0.390625 58.0811 2.41699Q59.3262 4.44336 61.4014 5.63965Q63.4766 6.83594 66.0156 6.83594ZM66.0156-18.8965Q68.9941-18.8965 70.6543-20.6299Q72.3145-22.3633 72.4609-25.4395Q72.5098-29.834 72.583-34.8145Q72.6562-39.7949 72.7539-44.9951Q72.8516-50.1953 72.9248-55.3711Q72.998-60.5469 73.0713-65.3809Q73.1445-70.2148 73.1445-74.4141Q73.1445-77.3926 71.167-79.4189Q69.1895-81.4453 66.0156-81.4453Q62.8906-81.4453 60.8643-79.4189Q58.8379-77.3926 58.8379-74.4141Q58.8867-70.2148 58.96-65.3809Q59.0332-60.5469 59.1064-55.3711Q59.1797-50.1953 59.3018-45.0195Q59.4238-39.8438 59.4971-34.8389Q59.5703-29.834 59.6191-25.4395Q59.7168-22.3633 61.377-20.6299Q63.0371-18.8965 66.0156-18.8965ZM51.416-75.3418Q42.8223-73.7305 34.9365-70.3613Q27.0508-66.9922 20.459-62.2559Q13.8672-57.5195 9.17969-51.709Q8.54492-50.9766 8.59375-50Q8.64258-49.0234 9.32617-48.2422L16.2598-41.2109Q17.1387-40.332 18.2861-40.3564Q19.4336-40.3809 20.2637-41.2598Q26.8555-48.2422 34.8389-52.7588Q42.8223-57.2754 51.7578-59.1309ZM80.5176-75.293L80.1758-59.1309Q89.1602-57.3242 97.1436-52.7588Q105.127-48.1934 111.865-41.2109Q112.646-40.3809 113.77-40.4297Q114.893-40.4785 115.723-41.3086L122.656-48.2422Q123.438-49.0234 123.462-50Q123.486-50.9766 122.852-51.709Q118.066-57.5195 111.523-62.2803Q104.98-67.041 97.0947-70.4102Q89.209-73.7793 80.5176-75.293ZM80.0293-45.752L79.6875-28.9062Q83.1055-27.5391 86.0596-25.4883Q89.0137-23.4375 91.3574-20.9473Q92.1875-20.0684 93.2617-20.0928Q94.3359-20.1172 95.2637-20.9961L102.979-28.5156Q103.711-29.248 103.784-30.1514Q103.857-31.0547 103.174-31.8359Q99.2188-36.5723 93.2129-40.2588Q87.207-43.9453 80.0293-45.752ZM52.0508-45.752Q44.8242-43.8965 38.8428-40.2832Q32.8613-36.6699 28.8574-31.8359Q28.1738-31.0547 28.2227-30.1514Q28.2715-29.248 29.0527-28.5156L36.8164-20.9473Q37.7441-20.0195 38.8916-20.0928Q40.0391-20.166 40.918-21.1914Q43.2129-23.6328 46.1426-25.6104Q49.0723-27.5879 52.3438-28.9551Z"/>
  </g>
  <g id="Medium-M" transform="matrix(1 0 0 1 1680.69 1126)">
   <path d="M65.8691 6.20117Q68.2129 6.20117 70.1172 5.07812Q72.0215 3.95508 73.1445 2.0752Q74.2676 0.195312 74.2676-2.09961Q74.2676-4.39453 73.1445-6.25Q72.0215-8.10547 70.1172-9.22852Q68.2129-10.3516 65.8691-10.3516Q63.5742-10.3516 61.6699-9.25293Q59.7656-8.1543 58.6182-6.27441Q57.4707-4.39453 57.4707-2.09961Q57.4707 0.195312 58.6182 2.0752Q59.7656 3.95508 61.6699 5.07812Q63.5742 6.20117 65.8691 6.20117ZM65.918-18.5547Q68.4082-18.5547 69.8975-20.0439Q71.3867-21.5332 71.4355-24.1699Q71.4844-29.0039 71.5576-34.1797Q71.6309-39.3555 71.7041-44.6533Q71.7773-49.9512 71.8506-55.2246Q71.9238-60.498 71.9727-65.5518Q72.0215-70.6055 72.0703-75.3418Q72.0703-77.9785 70.2881-79.6875Q68.5059-81.3965 65.8691-81.3965Q63.2812-81.3965 61.499-79.6875Q59.7168-77.9785 59.7168-75.3418Q59.7656-70.6055 59.8145-65.5518Q59.8633-60.498 59.9365-55.2246Q60.0098-49.9512 60.1074-44.6533Q60.2051-39.3555 60.2783-34.1797Q60.3516-29.0039 60.4004-24.1699Q60.4492-21.5332 61.9141-20.0439Q63.3789-18.5547 65.918-18.5547ZM52.3438-75.0977Q43.6035-73.5352 35.6201-70.2148Q27.6367-66.8945 20.9473-62.1094Q14.2578-57.3242 9.52148-51.4648Q8.98438-50.8301 9.00879-49.9512Q9.0332-49.0723 9.7168-48.3398L16.5527-41.4062Q17.334-40.5762 18.3838-40.6006Q19.4336-40.625 20.2148-41.4551Q26.9531-48.584 35.1807-53.125Q43.4082-57.666 52.6367-59.5215ZM79.2969-75.0488L79.1016-59.4727Q88.3301-57.7148 96.5576-53.125Q104.785-48.5352 111.621-41.4062Q112.402-40.625 113.403-40.6494Q114.404-40.6738 115.234-41.5039L122.07-48.3398Q122.754-49.0723 122.803-49.9512Q122.852-50.8301 122.217-51.4648Q117.432-57.3242 110.791-62.1094Q104.15-66.8945 96.167-70.2393Q88.1836-73.584 79.2969-75.0488ZM78.9551-45.8008L78.7109-29.4922Q82.4219-28.0762 85.5957-25.9033Q88.7695-23.7305 91.3086-21.0938Q92.041-20.2637 93.0176-20.2881Q93.9941-20.3125 94.873-21.1426L102.49-28.6133Q103.174-29.2969 103.223-30.1514Q103.271-31.0059 102.686-31.6895Q98.6816-36.5234 92.5293-40.2832Q86.377-44.043 78.9551-45.8008ZM52.8809-45.8008Q45.459-43.9941 39.3311-40.3076Q33.2031-36.6211 29.1504-31.6895Q28.5156-31.0059 28.5645-30.1514Q28.6133-29.2969 29.2969-28.6133L36.9629-21.0449Q37.8418-20.2148 38.8916-20.2881Q39.9414-20.3613 40.7715-21.2891Q43.2129-23.9258 46.3623-26.0498Q49.5117-28.1738 53.125-29.5898Z"/>
  </g>
  <g id="Regular-M" transform="matrix(1 0 0 1 1384.12 1126)">
   <path d="M65.7227 5.37109Q67.7734 5.37109 69.4824 4.3457Q71.1914 3.32031 72.168 1.63574Q73.1445-0.0488281 73.1445-2.09961Q73.1445-4.15039 72.168-5.83496Q71.1914-7.51953 69.4824-8.52051Q67.7734-9.52148 65.7227-9.52148Q63.6719-9.52148 61.9873-8.54492Q60.3027-7.56836 59.3018-5.85938Q58.3008-4.15039 58.3008-2.09961Q58.3008-0.0488281 59.3018 1.63574Q60.3027 3.32031 61.9873 4.3457Q63.6719 5.37109 65.7227 5.37109ZM65.7715-18.1641Q67.6758-18.1641 68.8965-19.3359Q70.1172-20.5078 70.166-22.5586Q70.2148-27.9297 70.2637-33.3496Q70.3125-38.7695 70.3613-44.165Q70.4102-49.5605 70.4346-54.9805Q70.459-60.4004 70.5078-65.7959Q70.5566-71.1914 70.6055-76.6113Q70.6055-78.7109 69.1406-80.0049Q67.6758-81.2988 65.7227-81.2988Q63.7695-81.2988 62.3047-80.0049Q60.8398-78.7109 60.8398-76.6113Q60.8887-71.1914 60.9375-65.7959Q60.9863-60.4004 61.0352-54.9805Q61.084-49.5605 61.1572-44.165Q61.2305-38.7695 61.2793-33.3496Q61.3281-27.9297 61.377-22.5586Q61.4258-20.5078 62.6221-19.3359Q63.8184-18.1641 65.7715-18.1641ZM53.6133-74.8047Q44.6777-73.3398 36.5234-70.0195Q28.3691-66.6992 21.582-61.9141Q14.7949-57.1289 10.0098-51.2207Q9.52148-50.6348 9.5459-49.8779Q9.57031-49.1211 10.1562-48.4375L16.8945-41.6016Q17.627-40.8691 18.5547-40.8936Q19.4824-40.918 20.166-41.6504Q27.0996-49.0234 35.6445-53.6377Q44.1895-58.252 53.8086-59.9609ZM77.7832-74.7559L77.6367-59.9121Q87.2559-58.3008 95.7764-53.6377Q104.297-48.9746 111.377-41.6016Q112.061-40.918 112.939-40.9424Q113.818-40.9668 114.551-41.6992L121.289-48.4375Q121.924-49.1211 121.948-49.8779Q121.973-50.6348 121.436-51.2207Q116.602-57.0801 109.863-61.8896Q103.125-66.6992 94.9707-70.0439Q86.8164-73.3887 77.7832-74.7559ZM77.5879-45.8496L77.4414-30.2734Q81.4941-28.8086 84.9854-26.4648Q88.4766-24.1211 91.1621-21.2402Q91.8457-20.5078 92.7002-20.5322Q93.5547-20.5566 94.3359-21.2891L101.855-28.7598Q102.441-29.3945 102.49-30.1514Q102.539-30.9082 102.002-31.4941Q97.9492-36.4746 91.6016-40.3076Q85.2539-44.1406 77.5879-45.8496ZM53.9551-45.8496Q46.2891-44.0918 39.9658-40.332Q33.6426-36.5723 29.4922-31.4941Q28.9551-30.9082 28.9795-30.1514Q29.0039-29.3945 29.6387-28.7598L37.207-21.1914Q37.9883-20.459 38.916-20.5322Q39.8438-20.6055 40.5762-21.4355Q43.2129-24.3164 46.6797-26.6113Q50.1465-28.9062 54.1016-30.3711Z"/>
  </g>
  <g id="Light-M" transform="matrix(1 0 0 1 1088.51 1126)">
   <path d="M64.6484 4.19922Q66.4551 4.19922 68.0176 3.27148Q69.5801 2.34375 70.459 0.830078Q71.3379-0.683594 71.3379-2.53906Q71.3379-4.39453 70.459-5.9082Q69.5801-7.42188 68.0176-8.3252Q66.4551-9.22852 64.6484-9.22852Q62.793-9.22852 61.2793-8.34961Q59.7656-7.4707 58.8623-5.93262Q57.959-4.39453 57.959-2.53906Q57.959-0.683594 58.8623 0.830078Q59.7656 2.34375 61.2793 3.27148Q62.793 4.19922 64.6484 4.19922ZM64.6484-16.8457Q66.1133-16.8457 67.0654-17.749Q68.0176-18.6523 68.0176-20.2637Q68.0664-25.9766 68.0908-31.7139Q68.1152-37.4512 68.1641-43.2129Q68.2129-48.9746 68.2129-54.7119Q68.2129-60.4492 68.2617-66.1865Q68.3105-71.9238 68.3105-77.6855Q68.3105-79.2969 67.2363-80.2734Q66.1621-81.25 64.6484-81.25Q63.1348-81.25 62.0361-80.2734Q60.9375-79.2969 60.9375-77.6855Q60.9863-71.9238 61.0107-66.1865Q61.0352-60.4492 61.0596-54.7119Q61.084-48.9746 61.1328-43.2129Q61.1816-37.4512 61.2305-31.7139Q61.2793-25.9766 61.2793-20.2637Q61.3281-18.6523 62.2314-17.749Q63.1348-16.8457 64.6484-16.8457ZM54.0527-74.5605Q44.9707-73.2422 36.5967-69.9951Q28.2227-66.748 21.2402-61.9385Q14.2578-57.1289 9.47266-51.1719Q8.98438-50.5859 9.00879-49.8779Q9.0332-49.1699 9.57031-48.5352L15.918-42.1387Q16.6016-41.4551 17.4561-41.4551Q18.3105-41.4551 18.9453-42.1875Q26.123-49.7559 35.083-54.4434Q44.043-59.1309 54.1504-60.6445ZM75.1465-74.5117L75.0488-60.6445Q85.2539-59.1797 94.2139-54.4678Q103.174-49.7559 110.4-42.1387Q111.035-41.4551 111.841-41.4795Q112.646-41.5039 113.33-42.1875L119.678-48.5352Q120.312-49.1699 120.337-49.8779Q120.361-50.5859 119.824-51.1719Q114.941-57.0801 108.008-61.9141Q101.074-66.748 92.7002-70.0195Q84.3262-73.291 75.1465-74.5117ZM75.0488-45.7031L74.9512-31.2012Q79.3945-29.834 83.3008-27.3682Q87.207-24.9023 90.1367-21.7773Q90.8203-21.0938 91.6016-21.0938Q92.3828-21.0938 93.0664-21.7773L100.244-28.9062Q100.83-29.4922 100.879-30.1758Q100.928-30.8594 100.391-31.3965Q96.2891-36.5234 89.624-40.332Q82.959-44.1406 75.0488-45.7031ZM54.248-45.7031Q46.3379-44.0918 39.7217-40.332Q33.1055-36.5723 28.9062-31.3965Q28.418-30.8594 28.4424-30.1758Q28.4668-29.4922 29.0527-28.9062L36.2305-21.6797Q36.9629-21.0449 37.793-21.0938Q38.623-21.1426 39.3066-21.9238Q42.2363-25.0488 46.1182-27.4658Q50-29.8828 54.3457-31.25Z"/>
  </g>
  <g id="Thin-M" transform="matrix(1 0 0 1 793.239 1126)">
   <path d="M63.1836 2.63672Q64.7461 2.63672 66.0645 1.83105Q67.3828 1.02539 68.1641-0.268555Q68.9453-1.5625 68.9453-3.125Q68.9453-4.73633 68.1641-6.03027Q67.3828-7.32422 66.0645-8.10547Q64.7461-8.88672 63.1836-8.88672Q61.6211-8.88672 60.3027-8.12988Q58.9844-7.37305 58.2275-6.05469Q57.4707-4.73633 57.4707-3.125Q57.4707-1.5625 58.2275-0.268555Q58.9844 1.02539 60.3027 1.83105Q61.6211 2.63672 63.1836 2.63672ZM63.1836-15.1367Q64.1113-15.1367 64.6484-15.6982Q65.1855-16.2598 65.1855-17.1875Q65.2344-23.3398 65.2344-29.541Q65.2344-35.7422 65.2588-41.9434Q65.2832-48.1445 65.2588-54.3457Q65.2344-60.5469 65.2588-66.7236Q65.2832-72.9004 65.2832-79.1016Q65.2832-80.0293 64.6973-80.5908Q64.1113-81.1523 63.1836-81.1523Q62.2559-81.1523 61.6699-80.5908Q61.084-80.0293 61.084-79.1016Q61.084-72.9004 61.084-66.7236Q61.084-60.5469 61.1084-54.3457Q61.1328-48.1445 61.1572-41.9434Q61.1816-35.7422 61.1816-29.541Q61.1816-23.3398 61.1816-17.1875Q61.2305-16.2598 61.7432-15.6982Q62.2559-15.1367 63.1836-15.1367ZM54.5898-74.2188Q45.3125-73.1445 36.6699-69.9707Q28.0273-66.7969 20.8252-61.9873Q13.623-57.1777 8.69141-51.123Q8.20312-50.5859 8.25195-49.9268Q8.30078-49.2676 8.78906-48.7305L14.6973-42.7734Q15.2832-42.1875 15.9912-42.2119Q16.6992-42.2363 17.2852-42.8223Q24.7559-50.6836 34.2773-55.4688Q43.7988-60.2539 54.6387-61.5723ZM71.6797-74.2188L71.6797-61.6211Q82.5684-60.3027 92.1387-55.542Q101.709-50.7812 109.131-42.8223Q109.717-42.2363 110.425-42.2363Q111.133-42.2363 111.719-42.8223L117.578-48.7305Q118.115-49.2676 118.14-49.9268Q118.164-50.5859 117.676-51.123Q112.744-57.1289 105.518-61.9385Q98.291-66.748 89.624-69.9463Q80.957-73.1445 71.6797-74.2188ZM71.6309-45.5078L71.582-32.4707Q76.6113-31.2012 81.0791-28.5889Q85.5469-25.9766 88.8184-22.5098Q89.4531-21.8262 90.1367-21.8262Q90.8203-21.8262 91.4062-22.3633L98.1445-29.0527Q98.6328-29.5898 98.6816-30.2002Q98.7305-30.8105 98.291-31.2988Q94.043-36.6211 86.9873-40.3809Q79.9316-44.1406 71.6309-45.5078ZM54.6387-45.5078Q46.4355-44.0918 39.4287-40.3564Q32.4219-36.6211 28.125-31.2988Q27.6367-30.8105 27.6855-30.2002Q27.7344-29.5898 28.2227-29.0527L35.0098-22.3633Q35.5957-21.7773 36.3037-21.8262Q37.0117-21.875 37.6465-22.5586Q40.8691-26.0254 45.3125-28.6133Q49.7559-31.2012 54.6875-32.4219Z"/>
  </g>
  <g id="Ultralight-M" transform="matrix(1 0 0 1 497.26 1126)">
   <path d="M62.4512 1.80664Q63.8672 1.80664 65.0879 1.09863Q66.3086 0.390625 66.9922-0.805664Q67.6758-2.00195 67.6758-3.41797Q67.6758-4.88281 66.9922-6.05469Q66.3086-7.22656 65.0879-7.95898Q63.8672-8.69141 62.4512-8.69141Q61.0352-8.69141 59.8389-7.9834Q58.6426-7.27539 57.9346-6.0791Q57.2266-4.88281 57.2266-3.41797Q57.2266-2.00195 57.9346-0.805664Q58.6426 0.390625 59.8389 1.09863Q61.0352 1.80664 62.4512 1.80664ZM62.4512-14.2578Q63.0371-14.2578 63.4033-14.624Q63.7695-14.9902 63.7695-15.625Q63.7695-22.0215 63.7695-28.4424Q63.7695-34.8633 63.7695-41.3086Q63.7695-47.7539 63.7451-54.1748Q63.7207-60.5957 63.7451-67.0166Q63.7695-73.4375 63.7695-79.834Q63.7695-80.4199 63.4277-80.7617Q63.0859-81.1035 62.4512-81.1035Q61.8164-81.1035 61.499-80.7617Q61.1816-80.4199 61.1816-79.834Q61.1816-73.4375 61.1572-67.0166Q61.1328-60.5957 61.1328-54.1748Q61.1328-47.7539 61.1328-41.3086Q61.1328-34.8633 61.1328-28.4424Q61.1328-22.0215 61.1328-15.625Q61.1328-14.9902 61.4746-14.624Q61.8164-14.2578 62.4512-14.2578ZM54.8828-74.0723Q45.5078-73.0469 36.7188-69.9463Q27.9297-66.8457 20.5811-62.0117Q13.2324-57.1777 8.34961-51.0742Q7.86133-50.5371 7.91016-49.9268Q7.95898-49.3164 8.39844-48.7793L14.0137-43.1641Q14.5996-42.5781 15.2588-42.5781Q15.918-42.5781 16.4551-43.2129Q24.1211-51.1719 33.9111-56.0059Q43.7012-60.8398 54.834-62.0605ZM69.9219-74.0723L69.9219-62.1094Q81.2012-60.8887 91.0889-56.1035Q100.977-51.3184 108.447-43.2129Q109.033-42.5781 109.668-42.5781Q110.303-42.5781 110.889-43.1641L116.504-48.7793Q117.041-49.3164 117.065-49.9268Q117.09-50.5371 116.553-51.0742Q111.621-57.1289 104.272-61.9629Q96.9238-66.7969 88.1104-69.9219Q79.2969-73.0469 69.9219-74.0723ZM69.9219-45.4102L69.9219-33.1055Q75.1953-31.8848 79.9561-29.1992Q84.7168-26.5137 88.1348-22.8516Q88.7695-22.2168 89.3799-22.1924Q89.9902-22.168 90.5762-22.7051L97.0703-29.1504Q97.5586-29.6387 97.6074-30.2002Q97.6562-30.7617 97.168-31.25Q92.9199-36.6699 85.6445-40.4053Q78.3691-44.1406 69.9219-45.4102ZM54.8828-45.4102Q46.4844-44.0918 39.2578-40.3564Q32.0312-36.6211 27.7344-31.25Q27.2949-30.7617 27.3438-30.2002Q27.3926-29.6387 27.832-29.1504L34.3262-22.7051Q34.9121-22.168 35.5469-22.1924Q36.1816-22.2168 36.7676-22.9004Q40.2344-26.5625 44.9463-29.1992Q49.6582-31.8359 54.8828-33.0566Z"/>
  </g>
  <g id="Black-S" transform="matrix(1 0 0 1 2881.23 696)">
   <path d="M52.1973 0.488281Q56.4453 0.488281 59.4971-2.34375Q62.5488-5.17578 62.5488-9.27734Q62.5488-13.3301 59.4971-16.1621Q56.4453-18.9941 52.1973-18.9941Q47.8516-18.9941 44.8242-16.1621Q41.7969-13.3301 41.7969-9.27734Q41.7969-5.17578 44.8242-2.34375Q47.8516 0.488281 52.1973 0.488281ZM52.1973-23.7305Q56.4453-23.7305 58.6182-26.123Q60.791-28.5156 60.9863-32.9102Q61.0352-34.5703 61.1572-37.6465Q61.2793-40.7227 61.4502-44.458Q61.6211-48.1934 61.7676-51.7822Q61.9141-55.3711 62.0117-58.0811Q62.1094-60.791 62.1094-61.7676Q62.1094-65.7715 59.5215-68.7256Q56.9336-71.6797 52.2461-71.6797Q47.5098-71.6797 44.8975-68.7256Q42.2852-65.7715 42.2852-61.7676Q42.2852-60.791 42.3584-58.0811Q42.4316-55.3711 42.6025-51.7822Q42.7734-48.1934 42.9199-44.4824Q43.0664-40.7715 43.1885-37.6709Q43.3105-34.5703 43.4082-32.9102Q43.5547-28.5156 45.7031-26.123Q47.8516-23.7305 52.1973-23.7305ZM36.1328-67.6758Q29.9805-66.1133 24.3164-63.4033Q18.6523-60.6934 13.8916-57.0801Q9.13086-53.4668 5.56641-49.0234Q4.78516-48.1934 4.83398-47.0459Q4.88281-45.8984 5.76172-45.0684L11.4746-39.209Q12.4023-38.2324 13.7451-38.2568Q15.0879-38.2812 16.0156-39.3066Q20.459-43.9941 25.6592-47.3145Q30.8594-50.6348 36.7188-52.4902ZM68.1152-67.6758L67.5293-52.5391Q73.3887-50.6836 78.6621-47.3389Q83.9355-43.9941 88.4766-39.209Q89.3555-38.2812 90.6738-38.3301Q91.9922-38.3789 92.9199-39.3066L98.6328-45.0684Q99.4629-45.8984 99.5117-47.0459Q99.5605-48.1934 98.8281-49.0234Q95.2148-53.4668 90.4053-57.1045Q85.5957-60.7422 79.9316-63.4277Q74.2676-66.1133 68.1152-67.6758ZM67.1875-43.3105L66.6016-27.7832Q68.0664-26.8555 69.4092-25.8057Q70.752-24.7559 71.9727-23.5352Q72.8516-22.5586 74.0967-22.583Q75.3418-22.6074 76.3672-23.5352L82.7637-29.4434Q83.5938-30.2734 83.667-31.2988Q83.7402-32.3242 83.0078-33.1543Q80.0781-36.5234 76.001-39.1113Q71.9238-41.6992 67.1875-43.3105ZM37.1094-43.2617Q32.373-41.6504 28.3203-39.0625Q24.2676-36.4746 21.3867-33.1543Q20.6055-32.3242 20.6787-31.2988Q20.752-30.2734 21.6309-29.4434L28.0273-23.5352Q29.0527-22.6074 30.3467-22.6318Q31.6406-22.6562 32.666-23.7305Q34.8633-25.9766 37.7441-27.6855Z"/>
  </g>
  <g id="Heavy-S" transform="matrix(1 0 0 1 2584.54 696)">
   <path d="M52.1484-0.292969Q56.0059-0.292969 58.7646-2.88086Q61.5234-5.46875 61.5234-9.22852Q61.5234-12.9395 58.7646-15.5273Q56.0059-18.1152 52.1484-18.1152Q48.2422-18.1152 45.4834-15.5273Q42.7246-12.9395 42.7246-9.22852Q42.7246-5.46875 45.4834-2.88086Q48.2422-0.292969 52.1484-0.292969ZM52.1484-23.4375Q55.8105-23.4375 57.7393-25.5127Q59.668-27.5879 59.8145-31.3965Q59.8633-33.5938 59.9609-36.9141Q60.0586-40.2344 60.2051-44.043Q60.3516-47.8516 60.4736-51.5625Q60.5957-55.2734 60.6689-58.3008Q60.7422-61.3281 60.7422-63.0371Q60.7422-66.5527 58.4717-69.0674Q56.2012-71.582 52.1973-71.582Q48.1445-71.582 45.8496-69.0674Q43.5547-66.5527 43.5547-63.0371Q43.5547-61.3281 43.6279-58.3008Q43.7012-55.2734 43.8477-51.5625Q43.9941-47.8516 44.1162-44.0674Q44.2383-40.2832 44.3359-36.9385Q44.4336-33.5938 44.5312-31.3965Q44.6289-27.5879 46.5332-25.5127Q48.4375-23.4375 52.1484-23.4375ZM37.4512-67.3828Q31.1523-65.8691 25.3174-63.1836Q19.4824-60.498 14.624-56.8604Q9.76562-53.2227 6.15234-48.7305Q5.46875-47.998 5.51758-46.9727Q5.56641-45.9473 6.34766-45.166L12.0117-39.4043Q12.8418-38.5254 14.0625-38.5254Q15.2832-38.5254 16.1133-39.502Q20.752-44.3848 26.2451-47.7783Q31.7383-51.1719 37.9395-52.8809ZM66.6992-67.334L66.2598-52.9297Q72.4121-51.2207 77.9785-47.8027Q83.5449-44.3848 88.2812-39.4043Q89.1113-38.5742 90.2832-38.5986Q91.4551-38.623 92.2852-39.502L97.9492-45.166Q98.7305-45.9473 98.7549-46.9727Q98.7793-47.998 98.1445-48.7305Q94.4824-53.2227 89.5996-56.8848Q84.7168-60.5469 78.9062-63.2324Q73.0957-65.918 66.6992-67.334ZM65.9668-43.4082L65.4785-28.5156Q67.2852-27.5391 68.9209-26.3184Q70.5566-25.0977 71.9727-23.6328Q72.7539-22.7539 73.877-22.7783Q75-22.8027 75.9277-23.6816L82.2266-29.5898Q83.0078-30.3711 83.0566-31.2988Q83.1055-32.2266 82.4707-32.959Q79.4922-36.4258 75.2441-39.1357Q70.9961-41.8457 65.9668-43.4082ZM38.2812-43.3594Q33.3008-41.748 29.0527-39.0869Q24.8047-36.4258 21.875-32.959Q21.1426-32.2266 21.2158-31.2988Q21.2891-30.3711 22.0703-29.5898L28.418-23.6328Q29.3457-22.8027 30.5176-22.8271Q31.6895-22.8516 32.6172-23.8281Q35.2051-26.6113 38.8184-28.4668Z"/>
  </g>
  <g id="Bold-S" transform="matrix(1 0 0 1 2287.88 696)">
   <path d="M52.0996-1.2207Q55.5176-1.2207 57.959-3.54004Q60.4004-5.85938 60.4004-9.17969Q60.4004-12.5 57.959-14.8193Q55.5176-17.1387 52.0996-17.1387Q48.6816-17.1387 46.2402-14.8193Q43.7988-12.5 43.7988-9.17969Q43.7988-5.85938 46.2402-3.54004Q48.6816-1.2207 52.0996-1.2207ZM52.1484-23.1445Q55.127-23.1445 56.7627-24.8535Q58.3984-26.5625 58.4961-29.6875Q58.5449-32.5195 58.6182-36.1084Q58.6914-39.6973 58.8135-43.6035Q58.9355-47.5098 59.0332-51.3184Q59.1309-55.127 59.2041-58.5205Q59.2773-61.9141 59.2773-64.4531Q59.2773-67.3828 57.3242-69.458Q55.3711-71.5332 52.1484-71.5332Q48.877-71.5332 46.9238-69.458Q44.9707-67.3828 44.9707-64.4531Q44.9707-61.9141 45.0439-58.5205Q45.1172-55.127 45.2148-51.3184Q45.3125-47.5098 45.4102-43.6035Q45.5078-39.6973 45.6055-36.1084Q45.7031-32.5195 45.752-29.6875Q45.8496-26.5625 47.4854-24.8535Q49.1211-23.1445 52.1484-23.1445ZM38.9648-67.041Q32.4219-65.625 26.4404-62.9639Q20.459-60.3027 15.4785-56.6162Q10.498-52.9297 6.83594-48.4375Q6.25-47.7539 6.27441-46.875Q6.29883-45.9961 7.03125-45.3125L12.5977-39.5996Q13.3301-38.8184 14.4043-38.8428Q15.4785-38.8672 16.2109-39.6973Q21.0938-44.873 26.9287-48.3154Q32.7637-51.7578 39.3555-53.3691ZM65.1855-66.9922L64.7949-53.3691Q71.3867-51.8066 77.2461-48.3154Q83.1055-44.8242 88.1348-39.5996Q88.8184-38.8672 89.8438-38.916Q90.8691-38.9648 91.6504-39.6973L97.2168-45.3125Q97.9004-45.9961 97.9248-46.875Q97.9492-47.7539 97.3633-48.4375Q93.7012-52.9297 88.6963-56.6162Q83.6914-60.3027 77.7344-62.9883Q71.7773-65.6738 65.1855-66.9922ZM64.5996-43.5059L64.2578-29.3457Q66.4551-28.3203 68.4082-26.8799Q70.3613-25.4395 71.9238-23.7793Q72.6562-22.998 73.6328-23.0225Q74.6094-23.0469 75.4395-23.8281L81.6895-29.7852Q82.3242-30.4688 82.373-31.2744Q82.4219-32.0801 81.8848-32.7637Q78.8086-36.3281 74.3652-39.1602Q69.9219-41.9922 64.5996-43.5059ZM39.6484-43.457Q34.3262-41.8945 29.8828-39.1357Q25.4395-36.377 22.4121-32.7637Q21.7773-32.0801 21.8262-31.2744Q21.875-30.4688 22.6074-29.7852L28.8574-23.7793Q29.6875-22.998 30.7129-23.0469Q31.7383-23.0957 32.5684-23.9746Q35.5957-27.2949 39.9902-29.3457Z"/>
  </g>
  <g id="Semibold-S" transform="matrix(1 0 0 1 1991.19 696)">
   <path d="M52.0508-1.80664Q55.1758-1.80664 57.373-3.93066Q59.5703-6.05469 59.5703-9.13086Q59.5703-12.1582 57.373-14.2822Q55.1758-16.4062 52.0508-16.4062Q48.9746-16.4062 46.7529-14.2822Q44.5312-12.1582 44.5312-9.13086Q44.5312-6.05469 46.7529-3.93066Q48.9746-1.80664 52.0508-1.80664ZM52.0996-22.9004Q54.5898-22.9004 56.0303-24.3652Q57.4707-25.8301 57.5684-28.4668Q57.6172-31.7871 57.6904-35.5469Q57.7637-39.3066 57.8369-43.2617Q57.9102-47.2168 58.0078-51.123Q58.1055-55.0293 58.1543-58.667Q58.2031-62.3047 58.2031-65.3809Q58.2031-67.9688 56.4941-69.7021Q54.7852-71.4355 52.0996-71.4355Q49.3652-71.4355 47.6318-69.7021Q45.8984-67.9688 45.8984-65.3809Q45.9473-62.3047 45.9961-58.667Q46.0449-55.0293 46.1426-51.123Q46.2402-47.2168 46.3135-43.2617Q46.3867-39.3066 46.46-35.5469Q46.5332-31.7871 46.582-28.4668Q46.6797-25.8301 48.1201-24.3652Q49.5605-22.9004 52.0996-22.9004ZM39.9902-66.7969Q33.3008-65.4297 27.1973-62.7686Q21.0938-60.1074 16.04-56.4209Q10.9863-52.7344 7.27539-48.1934Q6.78711-47.6074 6.81152-46.8018Q6.83594-45.9961 7.4707-45.3613L12.9883-39.7461Q13.6719-39.0137 14.624-39.0381Q15.5762-39.0625 16.2598-39.7949Q21.2891-45.166 27.3682-48.6572Q33.4473-52.1484 40.332-53.7109ZM64.0625-66.748L63.8184-53.6621Q70.6055-52.1973 76.6846-48.6572Q82.7637-45.1172 87.9883-39.7461Q88.623-39.0625 89.5508-39.1113Q90.4785-39.1602 91.1621-39.8438L96.6797-45.3613Q97.3145-45.9961 97.3389-46.8018Q97.3633-47.6074 96.8262-48.1934Q93.1152-52.6855 88.0615-56.4209Q83.0078-60.1562 76.9287-62.8174Q70.8496-65.4785 64.0625-66.748ZM63.6719-43.5547L63.4277-29.9316Q65.8691-28.8086 68.0176-27.2461Q70.166-25.6836 71.9238-23.877Q72.6074-23.1445 73.4619-23.1689Q74.3164-23.1934 75.0977-23.9258L81.25-29.8828Q81.8848-30.5176 81.9092-31.25Q81.9336-31.9824 81.4453-32.6172Q78.3691-36.2793 73.7793-39.1846Q69.1895-42.0898 63.6719-43.5547ZM40.5273-43.5059Q35.0098-41.9922 30.4443-39.1602Q25.8789-36.3281 22.7539-32.6172Q22.2168-31.9824 22.2412-31.25Q22.2656-30.5176 22.9492-29.8828L29.1504-23.877Q29.8828-23.0957 30.8105-23.1689Q31.7383-23.2422 32.5195-24.0723Q35.8398-27.7344 40.8203-29.9316Z"/>
  </g>
  <g id="Medium-S" transform="matrix(1 0 0 1 1694.5 696)">
   <path d="M52.0508-2.29492Q54.9316-2.29492 56.958-4.27246Q58.9844-6.25 58.9844-9.08203Q58.9844-11.9141 56.958-13.916Q54.9316-15.918 52.0508-15.918Q49.1699-15.918 47.1191-13.916Q45.0684-11.9141 45.0684-9.08203Q45.0684-6.25 47.1191-4.27246Q49.1699-2.29492 52.0508-2.29492ZM52.0996-22.7051Q54.248-22.7051 55.542-23.999Q56.8359-25.293 56.8848-27.5879Q56.9336-31.2012 56.9824-35.1074Q57.0312-39.0137 57.1045-43.0176Q57.1777-47.0215 57.251-51.001Q57.3242-54.9805 57.373-58.8135Q57.4219-62.6465 57.4219-66.1133Q57.4219-68.4082 55.8838-69.8975Q54.3457-71.3867 52.0508-71.3867Q49.7559-71.3867 48.1934-69.8975Q46.6309-68.4082 46.6309-66.1133Q46.6797-62.6465 46.7285-58.8135Q46.7773-54.9805 46.8506-51.001Q46.9238-47.0215 46.9971-43.0176Q47.0703-39.0137 47.1436-35.1074Q47.2168-31.2012 47.2656-27.5879Q47.3145-25.293 48.6084-23.999Q49.9023-22.7051 52.0996-22.7051ZM40.7715-66.6016Q33.9844-65.332 27.8076-62.6709Q21.6309-60.0098 16.4795-56.2988Q11.3281-52.5879 7.66602-47.998Q7.17773-47.4609 7.20215-46.7285Q7.22656-45.9961 7.8125-45.4102L13.3301-39.8438Q13.916-39.209 14.7949-39.209Q15.6738-39.209 16.3574-39.8926Q21.4844-45.4102 27.7344-48.9258Q33.9844-52.4414 41.0645-53.9551ZM63.2812-66.5527L63.0371-53.9062Q70.0684-52.4902 76.2939-48.9014Q82.5195-45.3125 87.8906-39.8438Q88.4766-39.2578 89.3066-39.2822Q90.1367-39.3066 90.8203-39.9414L96.2891-45.4102Q96.9238-45.9961 96.9238-46.7285Q96.9238-47.4609 96.4355-47.998Q92.6758-52.5391 87.5732-56.2744Q82.4707-60.0098 76.3184-62.6709Q70.166-65.332 63.2812-66.5527ZM62.9395-43.6035L62.7441-30.3223Q65.4297-29.1992 67.749-27.5391Q70.0684-25.8789 71.875-23.9258Q72.5098-23.291 73.3154-23.3154Q74.1211-23.3398 74.8535-23.9746L80.957-29.9805Q81.4941-30.5664 81.543-31.25Q81.5918-31.9336 81.1035-32.5195Q77.9785-36.1816 73.3154-39.1602Q68.6523-42.1387 62.9395-43.6035ZM41.2109-43.6035Q35.5469-42.041 30.8594-39.1846Q26.1719-36.3281 23.0469-32.5195Q22.5098-31.9336 22.5586-31.25Q22.6074-30.5664 23.1934-29.9805L29.3457-23.9258Q30.0781-23.1934 30.9082-23.2666Q31.7383-23.3398 32.4707-24.1211Q36.084-28.0762 41.4062-30.4199Z"/>
  </g>
  <g id="Regular-S" transform="matrix(1 0 0 1 1397.82 696)">
   <path d="M52.002-2.88086Q54.5898-2.88086 56.3965-4.6875Q58.2031-6.49414 58.2031-9.0332Q58.2031-11.6211 56.3965-13.4277Q54.5898-15.2344 52.002-15.2344Q49.4629-15.2344 47.6318-13.4277Q45.8008-11.6211 45.8008-9.0332Q45.8008-6.49414 47.6318-4.6875Q49.4629-2.88086 52.002-2.88086ZM52.0508-22.5098Q53.7598-22.5098 54.8584-23.5596Q55.957-24.6094 56.0059-26.416Q56.0547-30.4688 56.0791-34.5459Q56.1035-38.623 56.1523-42.7002Q56.2012-46.7773 56.25-50.8301Q56.2988-54.8828 56.3477-58.96Q56.3965-63.0371 56.3965-67.0898Q56.3965-68.9941 55.0781-70.166Q53.7598-71.3379 52.002-71.3379Q50.2441-71.3379 48.9258-70.166Q47.6074-68.9941 47.6074-67.0898Q47.6562-63.0371 47.7051-58.96Q47.7539-54.8828 47.8027-50.8301Q47.8516-46.7773 47.9004-42.7002Q47.9492-38.623 47.998-34.5459Q48.0469-30.4688 48.0957-26.416Q48.1445-24.6094 49.2432-23.5596Q50.3418-22.5098 52.0508-22.5098ZM41.7969-66.3574Q34.8633-65.1367 28.5645-62.5Q22.2656-59.8633 17.041-56.1279Q11.8164-52.3926 8.10547-47.8027Q7.71484-47.3145 7.71484-46.6797Q7.71484-46.0449 8.25195-45.5078L13.7207-39.9902Q14.2578-39.4043 15.0391-39.4043Q15.8203-39.4043 16.4062-40.0391Q21.6797-45.7031 28.1738-49.2676Q34.668-52.832 41.9922-54.248ZM62.207-66.3086L62.0605-54.1992Q69.3359-52.8809 75.7812-49.2432Q82.2266-45.6055 87.7441-39.9902Q88.2812-39.4531 89.0137-39.4775Q89.7461-39.502 90.332-40.0879L95.8008-45.5078Q96.3379-46.0449 96.3379-46.6797Q96.3379-47.3145 95.8984-47.8027Q92.1387-52.3438 86.9629-56.1035Q81.7871-59.8633 75.5127-62.5244Q69.2383-65.1855 62.207-66.3086ZM62.0117-43.6523L61.9141-30.9082Q64.8438-29.7363 67.3828-27.9297Q69.9219-26.123 71.875-24.0234Q72.4609-23.4375 73.1445-23.4619Q73.8281-23.4863 74.5117-24.0723L80.5664-30.0781Q81.0547-30.6152 81.0791-31.2256Q81.1035-31.8359 80.7129-32.373Q77.5391-36.1328 72.7295-39.1846Q67.9199-42.2363 62.0117-43.6523ZM42.1387-43.6523Q36.2305-42.1387 31.4209-39.209Q26.6113-36.2793 23.3887-32.373Q22.9492-31.8359 22.9736-31.2256Q22.998-30.6152 23.5352-30.0781L29.6387-24.0234Q30.2734-23.3398 31.0303-23.4131Q31.7871-23.4863 32.4219-24.2188Q36.3281-28.5645 42.2363-31.0059Z"/>
  </g>
  <g id="Light-S" transform="matrix(1 0 0 1 1102.08 696)">
   <path d="M51.0254-3.90625Q53.3203-3.90625 54.9561-5.54199Q56.5918-7.17773 56.5918-9.42383Q56.5918-11.7188 54.9561-13.3545Q53.3203-14.9902 51.0254-14.9902Q48.7793-14.9902 47.1191-13.3545Q45.459-11.7188 45.459-9.42383Q45.459-7.17773 47.1191-5.54199Q48.7793-3.90625 51.0254-3.90625ZM51.0742-21.3379Q52.3926-21.3379 53.2471-22.168Q54.1016-22.998 54.1016-24.3652Q54.1504-28.7109 54.1748-33.0811Q54.1992-37.4512 54.2236-41.8457Q54.248-46.2402 54.2725-50.5859Q54.2969-54.9316 54.3457-59.3018Q54.3945-63.6719 54.3945-68.0664Q54.3945-69.5312 53.3936-70.4102Q52.3926-71.2891 51.0254-71.2891Q49.6582-71.2891 48.6816-70.4102Q47.7051-69.5312 47.7051-68.0664Q47.7539-63.6719 47.7783-59.3018Q47.8027-54.9316 47.8271-50.5859Q47.8516-46.2402 47.9004-41.8457Q47.9492-37.4512 47.9736-33.0811Q47.998-28.7109 48.0469-24.3652Q48.0469-22.998 48.9014-22.168Q49.7559-21.3379 51.0742-21.3379ZM42.1387-66.1621Q35.1074-65.0391 28.6133-62.4756Q22.1191-59.9121 16.748-56.1523Q11.377-52.3926 7.61719-47.7539Q7.22656-47.2656 7.22656-46.6797Q7.22656-46.0938 7.71484-45.6055L12.8418-40.4297Q13.3789-39.8926 14.0625-39.8926Q14.7461-39.8926 15.2832-40.4785Q20.8008-46.3379 27.6611-49.9756Q34.5215-53.6133 42.2852-54.8828ZM59.8633-66.1133L59.7656-54.834Q67.5293-53.6621 74.3896-50Q81.25-46.3379 86.8652-40.4785Q87.3535-39.9414 88.0371-39.9658Q88.7207-39.9902 89.2578-40.5273L94.3848-45.6055Q94.873-46.0938 94.873-46.6797Q94.873-47.2656 94.4824-47.7539Q90.6738-52.3438 85.3027-56.1279Q79.9316-59.9121 73.4619-62.5Q66.9922-65.0879 59.8633-66.1133ZM59.7656-43.5059L59.668-31.7383Q62.9883-30.6641 65.8936-28.7598Q68.7988-26.8555 70.9961-24.5117Q71.5332-23.9258 72.168-23.9502Q72.8027-23.9746 73.3887-24.5117L79.1504-30.1758Q79.5898-30.7129 79.6143-31.25Q79.6387-31.7871 79.2969-32.2754Q76.0742-36.1816 70.9717-39.209Q65.8691-42.2363 59.7656-43.5059ZM42.3828-43.5059Q36.2793-42.1387 31.2012-39.209Q26.123-36.2793 22.8516-32.2754Q22.4609-31.7871 22.4854-31.25Q22.5098-30.7129 22.998-30.1758L28.7598-24.4629Q29.3457-23.877 30.0293-23.9258Q30.7129-23.9746 31.2988-24.6582Q35.7422-29.4922 42.4805-31.7871Z"/>
  </g>
  <g id="Thin-S" transform="matrix(1 0 0 1 806.642 696)">
   <path d="M49.7559-5.27344Q51.6602-5.27344 53.0518-6.66504Q54.4434-8.05664 54.4434-9.96094Q54.4434-11.9141 53.0518-13.2812Q51.6602-14.6484 49.7559-14.6484Q47.8516-14.6484 46.46-13.2812Q45.0684-11.9141 45.0684-9.96094Q45.0684-8.05664 46.46-6.66504Q47.8516-5.27344 49.7559-5.27344ZM49.7559-19.8242Q50.5371-19.8242 51.0742-20.3125Q51.6113-20.8008 51.6113-21.6797Q51.6113-26.416 51.6357-31.1768Q51.6602-35.9375 51.6602-40.7227Q51.6602-45.5078 51.6846-50.2686Q51.709-55.0293 51.709-59.79Q51.709-64.5508 51.709-69.2871Q51.709-70.166 51.1475-70.7031Q50.5859-71.2402 49.7559-71.2402Q48.9258-71.2402 48.3643-70.7031Q47.8027-70.166 47.8027-69.2871Q47.8516-64.5508 47.8516-59.79Q47.8516-55.0293 47.876-50.2686Q47.9004-45.5078 47.9004-40.7227Q47.9004-35.9375 47.9248-31.1768Q47.9492-26.416 47.9492-21.6797Q47.9492-20.8008 48.4375-20.3125Q48.9258-19.8242 49.7559-19.8242ZM42.627-65.8691Q35.4492-64.9414 28.7109-62.4268Q21.9727-59.9121 16.3574-56.1768Q10.7422-52.4414 6.93359-47.7051Q6.5918-47.2656 6.61621-46.7285Q6.64062-46.1914 7.03125-45.752L11.7188-41.0645Q12.207-40.5762 12.793-40.5762Q13.3789-40.5762 13.8184-41.1133Q19.6289-47.168 26.9775-50.9033Q34.3262-54.6387 42.6758-55.7129ZM56.7871-65.8691L56.7383-55.7129Q65.1855-54.6875 72.5586-50.9766Q79.9316-47.2656 85.6934-41.0645Q86.1816-40.5762 86.7432-40.5762Q87.3047-40.5762 87.793-41.0645L92.5293-45.752Q92.9688-46.1914 92.9688-46.7285Q92.9688-47.2656 92.5781-47.7051Q88.7207-52.3926 83.1299-56.1523Q77.5391-59.9121 70.8008-62.4512Q64.0625-64.9902 56.7871-65.8691ZM56.7383-43.3594L56.7383-32.8125Q60.498-31.8359 63.916-29.834Q67.334-27.832 69.8242-25.1465Q70.3125-24.6094 70.8496-24.585Q71.3867-24.5605 71.9238-25.0488L77.2949-30.3711Q77.6855-30.8105 77.71-31.2988Q77.7344-31.7871 77.3926-32.1777Q74.0723-36.2793 68.6279-39.2578Q63.1836-42.2363 56.7383-43.3594ZM42.7246-43.3594Q36.377-42.1875 30.957-39.2578Q25.5371-36.3281 22.168-32.1777Q21.7773-31.7871 21.8262-31.2988Q21.875-30.8105 22.2656-30.3711L27.6367-25.0488Q28.125-24.5117 28.6865-24.5605Q29.248-24.6094 29.7852-25.1953Q34.9121-30.7129 42.7734-32.8125Z"/>
  </g>
  <g id="Ultralight-S" transform="matrix(1 0 0 1 510.59 696)">
   <path d="M49.0723-5.95703Q50.8301-5.95703 52.0752-7.22656Q53.3203-8.49609 53.3203-10.2539Q53.3203-11.9629 52.0752-13.2324Q50.8301-14.502 49.0723-14.502Q47.3633-14.502 46.0938-13.2324Q44.8242-11.9629 44.8242-10.2539Q44.8242-8.49609 46.0938-7.22656Q47.3633-5.95703 49.0723-5.95703ZM49.1211-18.9941Q49.6094-18.9941 49.9756-19.3604Q50.3418-19.7266 50.3418-20.2637Q50.3418-25.2441 50.3418-30.2002Q50.3418-35.1562 50.3418-40.1611Q50.3418-45.166 50.3418-50.1221Q50.3418-55.0781 50.3418-60.0342Q50.3418-64.9902 50.3418-69.9707Q50.3418-70.5566 50-70.874Q49.6582-71.1914 49.0723-71.1914Q48.5352-71.1914 48.2178-70.874Q47.9004-70.5566 47.9004-69.9707Q47.9004-64.9902 47.9004-60.0342Q47.9004-55.0781 47.9004-50.1221Q47.9004-45.166 47.9004-40.1611Q47.9004-35.1562 47.9004-30.2002Q47.9004-25.2441 47.9004-20.2637Q47.9004-19.7266 48.2178-19.3604Q48.5352-18.9941 49.1211-18.9941ZM42.8711-65.7227Q35.5957-64.8926 28.7354-62.4268Q21.875-59.9609 16.1621-56.2012Q10.4492-52.4414 6.5918-47.6562Q6.25-47.2168 6.27441-46.7285Q6.29883-46.2402 6.64062-45.8496L11.1328-41.3574Q11.5723-40.918 12.1094-40.918Q12.6465-40.918 13.0859-41.4062Q19.043-47.5586 26.6357-51.3428Q34.2285-55.127 42.9199-56.1035ZM55.2246-65.7227L55.2246-56.1523Q63.9648-55.1758 71.6309-51.4648Q79.2969-47.7539 85.1074-41.4062Q85.5469-40.918 86.084-40.918Q86.6211-40.918 87.0605-41.3574L91.6016-45.8496Q91.9922-46.2402 91.9922-46.7285Q91.9922-47.2168 91.6504-47.6562Q87.7441-52.3926 82.0068-56.1768Q76.2695-59.9609 69.4092-62.4268Q62.5488-64.8926 55.2246-65.7227ZM55.2246-43.2617L55.2246-33.3496Q59.2773-32.4707 62.915-30.3955Q66.5527-28.3203 69.1895-25.4883Q69.6777-24.9512 70.1904-24.9268Q70.7031-24.9023 71.1426-25.3418L76.3672-30.4199Q76.709-30.8594 76.7334-31.2988Q76.7578-31.7383 76.4648-32.1289Q73.0957-36.3281 67.4316-39.2822Q61.7676-42.2363 55.2246-43.2617ZM42.9199-43.2617Q36.4258-42.1875 30.8105-39.2578Q25.1953-36.3281 21.7773-32.1289Q21.4355-31.7383 21.4844-31.2988Q21.5332-30.8594 21.9238-30.4199L27.0508-25.3418Q27.4902-24.9023 28.0029-24.9268Q28.5156-24.9512 29.0039-25.4883Q34.5215-31.3477 42.9199-33.3496Z"/>
  </g>
 </g>
</svg>
